<svg xmlns="http://www.w3.org/2000/svg" xmlns:xlink="http://www.w3.org/1999/xlink" width="88.311" height="81.399" viewBox="0 0 88.311 81.399">
  <defs>
    <clipPath id="clip-path">
      <rect id="長方形_163" data-name="長方形 163" width="81.399" height="88.311" fill="none" stroke="#707070" stroke-width="0.5"/>
    </clipPath>
  </defs>
  <g id="グループ_8693" data-name="グループ 8693" transform="translate(0 81.399) rotate(-90)">
    <path id="パス_9930" data-name="パス 9930" d="M9.985,22.061,7.547,61.539l6.03,6.7-4.52,4.908V82.9L0,87.548l14.4-4.18V77.331l4.18-3.948,3.948,5.341L67.81,68.738l13-31.35L65.022,4.411,31.814,0Z" transform="translate(0.173 0.4)" fill="#fff" stroke="#707070" stroke-width="0.5"/>
    <g id="グループ_8647" data-name="グループ 8647">
      <g id="グループ_8646" data-name="グループ 8646" clip-path="url(#clip-path)">
        <path id="パス_9931" data-name="パス 9931" d="M0,87.549,9.057,82.9V73.151l4.521-4.934-6.03-6.677L9.986,22.062,31.815,0,65.023,4.412,80.815,37.388l-13,31.351L22.526,78.725l-3.948-5.341L14.4,77.332v6.038Z" transform="translate(0.172 0.399)" fill="none" stroke="#000" stroke-miterlimit="10" stroke-width="0.5"/>
      </g>
    </g>
  </g>
</svg>
