<svg id="グループ_8692" data-name="グループ 8692" xmlns="http://www.w3.org/2000/svg" width="73.697" height="77.301" viewBox="0 0 73.697 77.301">
  <g id="楕円形_5" data-name="楕円形 5" transform="translate(51.733 72.598)" fill="#fff" stroke="#000" stroke-width="0.5">
    <ellipse cx="2.939" cy="2.351" rx="2.939" ry="2.351" stroke="none"/>
    <ellipse cx="2.939" cy="2.351" rx="2.689" ry="2.101" fill="none"/>
  </g>
  <g id="楕円形_6" data-name="楕円形 6" transform="translate(42.327 66.72)" fill="#fff" stroke="#000" stroke-width="0.5">
    <ellipse cx="4.703" cy="3.527" rx="4.703" ry="3.527" stroke="none"/>
    <ellipse cx="4.703" cy="3.527" rx="4.453" ry="3.277" fill="none"/>
  </g>
  <g id="パス_9929" data-name="パス 9929" transform="translate(0 0.964)" fill="#fff">
    <path d="M 26.56963729858398 61.50819396972656 C 21.43351745605469 61.50819396972656 16.97904777526855 60.56778335571289 13.32997798919678 58.71309661865234 C 10.06130790710449 57.0517463684082 7.364697456359863 54.61894607543945 5.315047740936279 51.48224639892578 C 1.954127669334412 46.33884429931641 0.249997615814209 39.24555587768555 0.249997615814209 30.3994140625 C 0.249997615814209 22.66835403442383 3.968547582626343 16.01703453063965 11.30234718322754 10.6301851272583 C 14.51326751708984 8.271695137023926 18.44169807434082 6.144525051116943 22.97851753234863 4.307754993438721 C 27.09355735778809 2.64174485206604 31.74620819091797 1.198324918746948 36.80720901489258 0.01757493428885937 C 38.88738632202148 -0.4677350521087646 40.98039627075195 -0.713805079460144 43.0280876159668 -0.713805079460144 C 46.9055290222168 -0.713805079460144 50.67265701293945 0.1541249305009842 54.22482681274414 1.865894913673401 C 57.57406616210938 3.479864835739136 60.65426635742188 5.800835132598877 63.37987899780273 8.764334678649902 C 66.01535797119141 11.62983512878418 68.21482849121094 14.97755527496338 69.91719055175781 18.71450424194336 C 71.61849975585938 22.44913482666016 72.74076080322266 26.39108467102051 73.2528076171875 30.43085479736328 C 73.68824005126953 33.86611557006836 73.38851928710938 37.19663619995117 72.36197662353516 40.32989501953125 C 71.39130401611328 43.29264450073242 69.77703094482422 46.06819534301758 67.56398010253906 48.5794563293457 C 64.27024841308594 52.31702423095703 59.66603851318359 55.41845321655273 54.24908828735352 57.5484733581543 C 48.8814582824707 59.65910339355469 42.83051681518555 60.77472305297852 36.75040817260742 60.77472305297852 C 36.29537582397461 60.77472305297852 35.86088943481445 60.76743316650391 35.25072860717773 60.74955368041992 L 35.22671890258789 60.74884414672852 L 35.20299911499023 60.75273513793945 C 32.14217758178711 61.25402450561523 29.23749732971191 61.50819396972656 26.56963729858398 61.50819396972656 Z" stroke="none"/>
    <path d="M 43.0280876159668 -0.46380615234375 C 40.99948883056641 -0.46380615234375 38.92559814453125 -0.2199363708496094 36.86400604248047 0.2610359191894531 C 31.81558609008789 1.438854217529297 27.17539596557617 2.878326416015625 23.07233810424805 4.539485931396484 C 18.55474853515625 6.368465423583984 14.64454650878906 8.485466003417969 11.45034790039062 10.8316764831543 C 4.184226989746094 16.16880416870117 0.5 22.75234603881836 0.5 30.3994140625 C 0.5 39.1961669921875 2.1904296875 46.24344635009766 5.524330139160156 51.34549713134766 C 7.549758911132812 54.44511413574219 10.21405792236328 56.84894561767578 13.4432487487793 58.49022674560547 C 17.0568962097168 60.3269157409668 21.47324752807617 61.25819396972656 26.56963729858398 61.25819396972656 C 29.22400665283203 61.25819396972656 32.11509704589844 61.00512313842773 35.16259765625 60.50601577758789 L 35.21001815795898 60.49825668334961 L 35.258056640625 60.49965667724609 C 35.8653678894043 60.5174560546875 36.29773712158203 60.52471542358398 36.75040817260742 60.52471542358398 C 42.79951858520508 60.52471542358398 48.81882476806641 59.41509628295898 54.15760803222656 57.31581497192383 C 59.53780746459961 55.20024490356445 64.10879516601562 52.12210464477539 67.37641906738281 48.41416549682617 C 69.56690979003906 45.92849731445312 71.16436004638672 43.182373046875 72.12440490722656 40.25205230712891 C 73.13932037353516 37.15426635742188 73.43552398681641 33.86051559448242 73.00479888916016 30.46228408813477 C 72.49591827392578 26.44750595092773 71.38054656982422 22.52985382080078 69.68968963623047 18.81814575195312 C 67.998291015625 15.10525512695312 65.81344604492188 11.77960586547852 63.19586944580078 8.933563232421875 C 60.49174880981445 5.993446350097656 57.43693542480469 3.691303253173828 54.11629486083984 2.091106414794922 C 50.5982666015625 0.3957939147949219 46.86764526367188 -0.46380615234375 43.0280876159668 -0.46380615234375 M 43.02808380126953 -0.9638099670410156 C 59.22939682006836 -0.9638099670410156 71.43131256103516 14.07218933105469 73.50082397460938 30.3994140625 C 75.83005523681641 48.77580261230469 57.04708862304688 61.02471542358398 36.75040817260742 61.02471542358398 C 36.32417678833008 61.02471542358398 35.8996467590332 61.0186767578125 35.243408203125 60.99944305419922 C 5.978866577148438 65.79226684570312 0 46.95810317993164 0 30.3994140625 C 0 13.48552322387695 17.49480819702148 4.266506195068359 36.75040817260742 -0.2258834838867188 C 38.89762496948242 -0.726837158203125 40.99470901489258 -0.9638099670410156 43.02808380126953 -0.9638099670410156 Z" stroke="none" fill="#000"/>
  </g>
  <g id="楕円形_7" data-name="楕円形 7" transform="translate(31.745 53.786)" fill="#fff" stroke="#000" stroke-width="0.5">
    <ellipse cx="9.406" cy="6.467" rx="9.406" ry="6.467" stroke="none"/>
    <ellipse cx="9.406" cy="6.467" rx="9.156" ry="6.217" fill="none"/>
  </g>
</svg>
