<svg xmlns="http://www.w3.org/2000/svg" xmlns:xlink="http://www.w3.org/1999/xlink" width="71.641" height="70.716" viewBox="0 0 71.641 70.716">
  <defs>
    <clipPath id="clip-path">
      <rect id="長方形_164" data-name="長方形 164" width="61.655" height="62.769" transform="translate(0 0)" fill="none" stroke="#707070" stroke-width="0.5"/>
    </clipPath>
  </defs>
  <g id="グループ_8690" data-name="グループ 8690" transform="translate(0 60.896) rotate(-81)">
    <g id="グループ_8649" data-name="グループ 8649" transform="translate(0 0)" clip-path="url(#clip-path)">
      <path id="パス_9932" data-name="パス 9932" d="M8.612,63.777s11.1-12.372-.13-15.395-.756-9.392-.756-9.392-17.6-9.716.324-16.409c-5.4-10.472,1.943-13.6,8.961-12.092.216-7.341,12.955-17.6,20.3-3.347,12.415-3.13,20.3,4.966,15.222,14.25,11.552,1.3,9.716,16.95,4.642,18.137,3.347,5.182,3.131,13.495-8.744,12.415,2.7,6.369-8.2,9.176-12.523,3.347-2.915,6.693-11.227,5.29-14.143,2.051-1.918-2.131-9.582,3.567-13.148,6.434h0" transform="translate(0.263 0.263)" fill="#fff" stroke="#707070" stroke-width="0.5"/>
      <path id="パス_9933" data-name="パス 9933" d="M9.669,62.309s10.04-10.9-1.187-13.927-.756-9.392-.756-9.392-17.6-9.716.324-16.409c-5.4-10.472,1.943-13.6,8.961-12.092.216-7.341,12.955-17.6,20.3-3.347,12.415-3.13,20.3,4.966,15.222,14.25,11.552,1.3,9.716,16.95,4.642,18.137,3.347,5.182,3.131,13.495-8.744,12.415,2.7,6.369-8.2,9.176-12.523,3.347-2.915,6.693-11.227,5.29-14.143,2.051S9.669,62.309,9.669,62.309Z" transform="translate(0.263 0.263)" fill="none" stroke="#000" stroke-miterlimit="10" stroke-width="0.5"/>
    </g>
  </g>
</svg>
