<svg xmlns="http://www.w3.org/2000/svg" width="968.353" height="905.213" viewBox="0 0 968.353 905.213">
  <g id="グループ_9514" data-name="グループ 9514" transform="translate(-15879.122 5265.419)">
    <path id="パス_9973" data-name="パス 9973" d="M0,0S77.687,46.1,124.633,140.972" transform="translate(16352.861 -5120.953) rotate(-15)" fill="none" stroke="#fff" stroke-linecap="round" stroke-width="15"/>
    <path id="パス_9975" data-name="パス 9975" d="M0,0S148.253,88.835,155.023,273.689" transform="translate(16373.008 -5164.317) rotate(-16)" fill="none" stroke="#fad60b" stroke-linecap="round" stroke-width="5"/>
    <path id="パス_9977" data-name="パス 9977" d="M112.057,151.217C68.228,53.56,0,0,0,0" transform="translate(16637.545 -5055.364) rotate(14)" fill="none" stroke="#2ec4ce" stroke-linecap="round" stroke-width="20"/>
    <path id="パス_9979" data-name="パス 9979" d="M100.369,135.444C69.949,51.562,0,0,0,0" transform="matrix(-0.602, 0.799, -0.799, -0.602, 16333.389, -4453.416)" fill="none" stroke="#2ec4ce" stroke-linecap="round" stroke-width="14"/>
    <path id="パス_9972" data-name="パス 9972" d="M64.846,87.508C39.484,30.995,0,0,0,0" transform="matrix(-0.342, -0.94, 0.94, -0.342, 15933.188, -4968.447)" fill="none" stroke="#2ec4ce" stroke-linecap="round" stroke-width="36"/>
    <path id="パス_9981" data-name="パス 9981" d="M112.057,151.217C68.228,53.56,0,0,0,0" transform="translate(16599.008 -4511.652) rotate(89)" fill="none" stroke="#2ec4ce" stroke-linecap="round" stroke-width="10"/>
    <path id="パス_9982" data-name="パス 9982" d="M0,37.629S71.483-.619,195.635.008" transform="translate(16670.354 -5186.945) rotate(68)" fill="none" stroke="#f9584d" stroke-linecap="round" stroke-width="12" opacity="0.77"/>
    <path id="パス_9984" data-name="パス 9984" d="M0,55.318S105.08-.908,287.585.011" transform="translate(16755.203 -5248.863) rotate(74)" fill="none" stroke="#2ec4ce" stroke-linecap="round" stroke-width="21" opacity="0.25"/>
    <path id="パス_9976" data-name="パス 9976" d="M0,30.66s109.258-51.731,227.5-20.8" transform="translate(16690.539 -4790.708) rotate(111)" fill="none" stroke="#f9584d" stroke-linecap="round" stroke-width="12" opacity="0.9"/>
    <path id="パス_9980" data-name="パス 9980" d="M0,46.8S88.911-.77,243.335.009" transform="translate(16798.732 -4662.498) rotate(126)" fill="none" stroke="#fad60b" stroke-linecap="round" stroke-width="22"/>
    <path id="パス_9974" data-name="パス 9974" d="M0,43.02s110.194-59,214.429-38.808" transform="matrix(-0.326, -0.946, 0.946, -0.326, 15976.803, -4511.652)" fill="none" stroke="#fad60b" stroke-linecap="round" stroke-width="13"/>
    <path id="パス_9978" data-name="パス 9978" d="M0,34.086S70.626-7.876,170.4,1.316" transform="translate(16263.316 -4455.588) rotate(-159)" fill="none" stroke="#fff" stroke-linecap="round" stroke-width="4"/>
    <path id="パス_9983" data-name="パス 9983" d="M0,25.889S49.18-.426,134.6.005" transform="matrix(-0.982, 0.191, -0.191, -0.982, 16461.352, -4441.402)" fill="none" stroke="#f9584d" stroke-linecap="round" stroke-width="3"/>
  </g>
</svg>
