<svg xmlns="http://www.w3.org/2000/svg" xmlns:xlink="http://www.w3.org/1999/xlink" width="26.154" height="26.599" viewBox="0 0 26.154 26.599">
  <defs>
    <clipPath id="clip-path">
      <rect id="長方形_799" data-name="長方形 799" width="26.154" height="26.599" fill="none"/>
    </clipPath>
  </defs>
  <g id="グループ_9505" data-name="グループ 9505" transform="translate(0 0)">
    <g id="グループ_9504" data-name="グループ 9504" transform="translate(0 0)" clip-path="url(#clip-path)">
      <path id="パス_10053" data-name="パス 10053" d="M18.637,0H7.517A7.517,7.517,0,0,0,0,7.517V19.082A7.517,7.517,0,0,0,7.517,26.6h11.12a7.517,7.517,0,0,0,7.517-7.517V7.517A7.517,7.517,0,0,0,18.637,0M2.669,7.517A4.854,4.854,0,0,1,7.517,2.669h11.12a4.854,4.854,0,0,1,4.848,4.848V19.082a4.854,4.854,0,0,1-4.848,4.848H7.517a4.854,4.854,0,0,1-4.848-4.848Z"/>
      <path id="パス_10054" data-name="パス 10054" d="M126.718,137.845a6.85,6.85,0,1,0-6.85-6.85,6.858,6.858,0,0,0,6.85,6.85m0-11.565A4.715,4.715,0,1,1,122,130.995a4.72,4.72,0,0,1,4.715-4.715" transform="translate(-113.641 -117.696)"/>
      <path id="パス_10055" data-name="パス 10055" d="M359.422,90.755a1.535,1.535,0,1,1-1.535,1.535,1.535,1.535,0,0,1,1.535-1.535" transform="translate(-339.295 -86.04)"/>
    </g>
  </g>
</svg>
