<?xml version="1.0" encoding="UTF-8"?>
<svg id="layer" xmlns="http://www.w3.org/2000/svg" viewBox="0 0 511 511">
  <defs>
    <style>
      .cls-1 {
        stroke-width: 2px;
      }

      .cls-1, .cls-2 {
        fill: none;
        stroke: #000;
        stroke-linecap: round;
        stroke-linejoin: round;
      }

      .cls-2 {
        stroke-width: 1.3px;
      }

      .cls-3 {
        stroke-width: 0px;
      }
    </style>
  </defs>
  <path id="path" class="cls-1" d="M290.491,141.373c-.459.938-1.261,1.538-1.669,1.538-.827,0-2.481-2.153-3.146-3.308-.661-1.16-2.481-3.973-3.308-5.627s-1.654-6.449-.827-8.43c.499-1.2,1.119-2.274,1.855-3.05.489-.509,1.029-.887,1.618-1.089,1.487-.494,3.141-2.975,3.968-4.134.827-1.155,2.319-1.321,3.146-1.654.827-.328.494-3.308,2.808-4.629s5.294.494,6.287-.661c.897-1.049,2.339-2.506,4.815-2.032.257.05.524.121.807.212,2.975.993,5.622,9.262,7.442,13.23s6.272,15.267,7.109,20.314c.671,4.003.938,10.523.706,18.721v.015c-.02.802-.05,1.624-.081,2.455-.04.978-.086,1.982-.136,3.005M300.101,166.175c.202-1.467.383-3.529.509-5.642l.061-1.044v-.005c.061-1.134.106-2.259.126-3.282.035-1.649.02-3.055-.071-3.867-.328-2.975-5.788-6.776-8.102-8.597-.509-.398-1.266-1.261-2.133-2.365-3.091-3.913-7.624-10.866-7.624-10.866M322.84,170.451c-.03-.923-.076-1.951-.131-3.066-.126-2.546-.383-4.896-.605-6.595v-.015M322.023,163.246c.197.822.297,1.936-.136,3.005-.272.671-.756,1.326-1.563,1.886-2.864,1.987-6.111,4.447-9.071,5.703-.413.176-.827.333-1.23.454-3.267,1.003-6.03,4.145-6.529,5.778-.418,1.351-.146,10.407.313,14.37M300.61,160.533c-.766.978-1.583,2.597-1.261,4.215.101.489.363.968.751,1.427,1.598,1.906,5.289,3.585,7.916,5.103,1.775,1.029,2.733,1.941,3.237,2.561M300.67,159.484v.005c-.892.746-2.052,1.987-2.203,3.499-.111,1.129-.706,4.079-1.346,7.19-.232,1.109-.464,2.239-.686,3.313M286.507,205.659c-1.276,7.492-2.476,15.817-2.576,18.766M297.126,170.175c-.6.45-2.28,1.82-3.3,3.86-1.26,2.52-3.48,13.56-5,19.64-.6,2.42-1.48,7.02-2.32,11.98M299.244,248.864c3.378.303,6.464-.862,10.2-3.101.988-.595,2.047-1.593,3.111-2.859,3.56-4.23,7.185-11.37,8.511-15.792,1.719-5.738,4.487-19.931,4.371-24.307s-.575-16.583-1.039-20.733c-.459-4.145-.459-7.139-.575-8.637-.101-1.286-.787-2.627-.983-2.985-.03-.061-.05-.091-.05-.091,0,0-.963,5.929-2.289,8.687-1.24,2.576-10.412,14.41-16.694,15.393-.444.071-.877.086-1.291.04-.101-.01-.202-.03-.303-.055-5.254-1.155-5.854-16.336-5.778-20.924q-.005-.005,0-.01c.005-.59.03-1.008.05-1.19M271.271,192.56c.726,7.366,2.163,19.134,3.171,21.933,1.291,3.585,10.331,20.798,11.763,23.955.479,1.044,1.457,2.42,2.703,3.822,1.104,1.255,2.42,2.526,3.776,3.61M307.77,185.461c0,.948.771,1.719,1.714,1.719.948,0,1.719-.771,1.719-1.719,0-.943-.771-1.714-1.719-1.714-.943,0-1.714.771-1.714,1.714ZM286.507,205.654v.005c-1.694,2.294-4.094,5.733-4.674,7.467M244.165,220.417c1.518-1.301,3.303-2.98,5.218-4.86,6.05-5.945,13.412-13.936,17.904-18.56.988-1.018,2.355-2.546,3.983-4.437,8.708-10.104,24.822-30.413,29.526-36.358M246.383,68.784c-1.77-.136-4.044-.161-6.055.262-2.511.529-5.939,2.012-8.738,3.121-1.669.661-3.116,1.19-4.024,1.306-2.425.318-24.262,3.06-29.324,3.272-3.141.131-10.719,1.165-16.855,2.476-3.756.797-6.973,1.699-8.289,2.556-3.464,2.259-6.02,5.42-8.128,10.387-.661,1.553-1.724,4.588-2.914,8.183-2.622,7.906-5.839,18.534-6.635,22.119-1.16,5.208-13.508,32.415-15.822,41.102-2.319,8.682-9.842,28.558-14.667,34.155-4.825,5.597-9.343,30.262-8.824,51.302.519,21.04.262,31.951,1.82,32.99.585.388,1.719.817,3.277,1.155,2.597.565,6.368.892,10.75.403,7.013-.782,30.907-18.181,38.183-26.753,7.271-8.571,16.689-10.533,22.855-11.43,4.271-.62,15.282-.323,18.242-1.624.222-.101.398-.207.524-.323.303-.277.993-.716,1.583-1.245M224.486,204.388c6.373-9.368,13.719-34.427,14.713-40.865.161-1.039.338-2.728.524-4.891v-.005c.585-6.787,1.25-18.166,1.684-28.205.348-7.992.55-15.131.449-18.434-.106-3.449-.313-8.622-.484-13.906-.081-2.39-.156-4.8-.207-7.084-.131-5.496-.151-10.245.106-12.171.292-2.203,2.365-3.469,4.397-4.185.091-.035.182-.066.267-.096M239.738,218.153c2.415-2.385,3.252-5.808,4.508-9.872.237-.766.514-1.553.832-2.36,1.976-5.072,5.334-10.992,8.198-18.096.333-.817.671-1.755,1.018-2.778,3.141-9.277,6.776-26.062,7.613-33.479.721-6.368,2.027-14.077,3.05-19.462v-.005c.297-1.578.575-2.955.802-4.039.358-1.704,1.618-6.338,2.768-10.457.489-1.76.958-3.424,1.326-4.729M226.81,272.087c-2.748,2.748-5.879,12.489-8.677,22.916-2.158,8.032-4.119,16.472-5.556,22.432-.343,1.397-.645,2.657-.923,3.741-.02.091-.045.176-.066.262-2.339,9.161-5.45,34.724-7.25,49.049-.469,3.721-.847,6.686-1.099,8.405-1.225,8.35-2.945,30.696-2.697,37.321.025.666.479,1.266,1.286,1.81,4.099,2.793,17.229,4.129,27.807,4.755h.005c8.042.484,14.607.56,14.607.56-.494-4.669,3.681-32.657,5.4-41.99,1.139-6.176,9.852-36.686,17.188-64.109.741-2.768,1.467-5.506,2.168-8.183.328-1.24.65-2.471.963-3.681,2.44-9.393,4.523-17.849,5.824-24.06,2.062-9.852,1.013-16.714-1.477-21.6-.494-.973-1.044-1.866-1.639-2.687v-.005c-4.291-5.914-10.825-8.203-14.728-9.822-1.412-.585-4.124-1.074-7.573-1.482-5.193-.61-12.055-1.039-18.645-1.336-.62-.025-1.235-.055-1.85-.081-4.553-.187-8.884-.318-12.338-.403h-.005c-2.788-.071-5.002-.111-6.297-.131M121.205,283.17c2.148,9.474,11.057,24.086,21.63,30.802,1.921,1.22,3.897,2.183,5.899,2.803,14.239,4.417,32.41,3.681,46.402,2.703,8.435-.595,14.193-1.452,17.44-2.042M219.313,277.139s-.903,10.845-1.18,17.864M301.195,296.148c-7.452,1.971-22.144,6.434-31.23,9.227M303.907,313.568c-.01.187-.02.378-.025.565-.01.151-.02.308-.025.459-.363,7.634-.318,15,.227,19.029.418,3.111,1.134,8.113,1.916,13.704,1.639,11.748,3.555,26.082,3.555,30.847,0,6.333-2.113,25.341.892,31.533.328.686.721,1.215,1.19,1.553,4.689,3.383,19.8,2.082,26.052.782,1.407-.297,3.303-.6,5.395-.903,7.205-1.029,16.75-1.966,16.75-1.966l-.262-3.126c-.262-3.126-5.208-33.086-6.771-47.41-1.563-14.329-.524-30.222-.524-40.901s0-19.543-1.301-44.551c-1.301-25.008-17.975-29.697-26.834-29.96-2.259-.066-6.504-.182-11.587-.318M284.349,242.148c1.412.04,2.939.081,4.558.121M181.387,79.221c3.494,2.032,12.287,8.178,14.193,19.422,1.971,11.632,3.494,19.871,3.726,28.124.05,1.755.04,3.514-.035,5.304-.434,10.2,2.824,24.524,3.908,29.738,1.084,5.208,8.682,26.047,12.807,31.472.862,1.134,1.976,2.672,3.292,4.442.711.953,1.477,1.971,2.299,3.03.908,1.17,1.881,2.395,2.909,3.635,2.103,2.531,4.447,5.128,6.943,7.482.65.615,1.311,1.21,1.982,1.785,2.032,1.75,4.155,3.297,6.328,4.497.328.182.661.358.993.524,1.134.57,2.284,1.15,3.434,1.739,9.812,5.037,19.583,10.578,21.529,11.934,1.503,1.059,1.966,2.425,2.108,3.161M164.325,96.036c-.58.872-1.215,2.425-1.876,4.437-3.262,10.003-7.024,31.311-7.024,36.373,0,6.076,11.934,48.837,14.108,56.218,2.168,7.381,13.457,26.481,18.449,32.778,4.114,5.183,12.111,10.094,19.245,13.588,1.528.751,3.015,1.432,4.417,2.042.59.252,1.155.494,1.699.726,1.634.686,3.05,1.255,4.19,1.699h.005M266.344,234.307s-.277.136-.746.368c-2.244,1.129-8.854,4.523-10.76,6.358-1.79,1.729-3.363,3.328-4.467,4.684M233.849,96.177l-13.916,9.857s1.336,23.723,2.481,37.694c.096,1.16.192,2.254.282,3.262.151,1.674.297,3.111.434,4.22.933,7.603.176,32.561-1.326,47.455-.076.721-.151,1.417-.227,2.087M233.854,96.177l7.311-5.178M231.59,72.167c-2.339,3.57-7.538,11.778-8.46,15.474-1.2,4.8-.398,7.2-.398,7.2,0,0,5.914.539,11.118,1.336h.005M249.383,215.556c7.795-15.05,22.76-51.181,25.321-60.746,2.329-8.687,4.538-26.057,5.41-33.388M236.995,210.171c3.429-1.326,6.146-2.919,8.082-4.25M268.528,117.605c-2.057,1.079-3.787,2.269-3.454,3.106.237.59.222,3.227.126,6.071-.061,1.86-.156,3.807-.242,5.319v.005M241.407,130.422c2.218-.686,5.178-1.84,7.649-2.773.676-.257,1.316-.499,1.896-.706,2.97-1.069,8.173-7.013,9.6-8.692.242-.282.373-.444.373-.444,0,0-5.4-9.277-8.728-16.064-2.728-5.566-6.04-16.871-6.529-24.035-.02-.282-.035-.56-.04-.827-.035-.817-.02-1.568.04-2.239M249.055,127.649c-.192,2.622-.595,6.771-.595,6.771,0,0,3.045-.136,5.536,1.664,1.77,1.276,2.909,2.274,3.968,2.047.434-.086.852-.378,1.296-.943,1.205-1.533,4.588-7.85,5.939-10.407M265.074,120.711s-2.198-1.644-4.523-2.46M233.41,213.655c.983-.782,2.213-1.987,3.585-3.484,6.01-6.58,14.662-18.776,16.815-25.291.066-.212.131-.418.187-.615,2.218-7.891,3.187-21.459,3.464-29.768.207-6.237.418-13.255.504-16.366M239.723,158.632v-.005c4.069-6.963,8.738-24.207,8.738-24.207M222.414,143.728c-4.583-.746-14.541-2.375-16.533-2.839l-.202,3.812s12.837,1.81,17.017,2.289M199.306,126.767c-3.988-5.692-14.793-21.025-18.499-25.316M265.598,234.676l2.203.837v.005l12.565,4.78M280.366,240.297c-.03.01-.061.025-.091.035-.736.308-1.82.832-2.97,1.629h-.005c-1.008.701-2.067,1.603-3,2.758-2.551,3.161-2.98,8.042-1.629,12.302v.005M130.105,229.008c5.375,3.58,28.291,9.146,44.228,10.276,12.116.862,26.627.413,32.894.146M179.43,247.114s-30.086,7.734-34.991,10.371c-4.901,2.642-9.338,6.605-9.998,7.83M167.829,207.055s-19.346-19.583-23.213-26.113l-3.615,7.926c-.454,1.003-.333,2.168.323,3.05,3.66,4.916,11.153,19.487,16.714,22.029,1.709.782,9.792-6.892,9.792-6.892ZM219.277,197.723c-5.41-1.941-19.618-6.212-31.719-5.203M224.607,240.363c0,1.195,1.013,2.158,2.254,2.158s2.254-.963,2.254-2.158c0-1.19-1.008-2.158-2.254-2.158s-2.254.968-2.254,2.158ZM231.726,244.381c.832-.313,1.422-1.089,1.422-2.002,0-1.19-1.008-2.158-2.254-2.158s-2.254.968-2.254,2.158c0,.842.504,1.568,1.235,1.921M306.03,202.75c0,1.366,1.049,2.471,2.345,2.471s2.35-1.104,2.35-2.471c0-1.361-1.049-2.471-2.35-2.471s-2.345,1.109-2.345,2.471ZM306.217,208.16c0,1.361,1.054,2.471,2.35,2.471s2.345-1.109,2.345-2.471c0-1.366-1.049-2.471-2.345-2.471s-2.35,1.104-2.35,2.471ZM306.217,213.958c0,1.361,1.054,2.471,2.35,2.471s2.345-1.109,2.345-2.471c0-1.366-1.049-2.471-2.345-2.471s-2.35,1.104-2.35,2.471ZM302.213,194.425l.212,35.309M200.304,432.025c-3.948,4.114-7.099,15.832-7.099,20.334s.202,6.852.948,8.481v.01c.131.277.272.524.434.766,1.104,1.659,9.116,9.529,12.429,12.015,3.318,2.491,5.39,5.113,7.876,8.844,2.486,3.726,6.353,12.156,18.786,15.469,12.429,3.318,28.316,1.659,32.319.827,4.008-.827,10.361-3.59,11.607-7.18.156-.449.257-.872.313-1.276.413-3.025-1.855-4.951-5.148-8.118-3.731-3.59-13.951-10.911-17.818-15.469-1.936-2.284-6.514-7.381-11.052-12.227-4.508-4.82-8.98-9.398-10.775-10.704-.368-.267-.827-.57-1.361-.897M194.153,460.84v.01c-.015.474-.01,1.018.01,1.593.071,2.097.343,4.618.424,5.667.136,1.795,0,3.449,2.35,5.662,2.345,2.208,8.007,6.217,8.007,6.217l.141-3.731,2.35,1.104c.766.363,1.578,1.155,2.38,2.163,1.659,2.067,3.272,5.052,4.387,7.094,1.659,3.035,4.694,8.702,7.598,10.634,2.899,1.936,10.22,7.457,27.489,8.148,17.264.691,23.203-2.486,26.793-4.003,3.595-1.518,5.39-4.281,4.558-7.321-.529-1.936-1.84-3.146-2.723-3.761M209.814,479.525l-4.871.464M305.949,454.26c-1.563,3.514.03,11.738.03,11.738,6.086,4.205,30.217,4.76,30.217,4.76l-.111-4.094s2.879.111,7.084,1.659,8.632,5.753,14.274,9.297c5.647,3.539,12.953,5.198,20.143,4.76,7.195-.444,17.818-2.657,22.578-4.649,4.76-1.992,8.193-5.425,7.528-7.971-.469-1.79-2.193-3.252-3.176-3.958v-.005M308.788,429.211c-.504.227-.978.539-1.397.943-.57.545-1.044,1.25-1.392,2.153-.141.353-.257.736-.353,1.15-.711,3.086-1.326,7.387-1.387,11.405-.055,3.474.308,6.746,1.387,8.849.096.192.197.373.303.55,2.36,4.044,6.202,4.684,8.113,5.319,1.992.661,10.956,1.659,13.941,2.103,2.99.444,10.407.776,13.724,2.435,3.323,1.659,13.392,7.855,17.047,9.958,3.65,2.103,8.743,4.538,17.153,4.316,8.41-.217,20.808-3.872,23.465-5.642,2.627-1.755,5.597-4.271,5.123-6.948v-.005c-.232-1.286-1.25-2.602-3.464-3.892-6.862-3.983-14.612-4.316-18.262-5.647-3.65-1.326-10.402-5.087-14.279-7.745-3.872-2.657-18.812-14.057-21.136-14.944-.62-.237-1.457-.197-2.455-.025-.696.126-1.462.318-2.284.524h-.005c-.585.565-1.19,1.326-1.714,2.35-1.755,3.434-4.629,4.548-7.659,4.79-3.035.237-6.625,1.356-11.491-.479s-12.287-6.066-13.245-7.659c-.141-.237-.272-.474-.383-.711v-.005c-.378-.771-.61-1.538-.746-2.198M200.163,432.988c-.081.116-.156.237-.232.358-.595.963-.681,2.143-.429,3.444v.005c.353,1.815,1.366,3.857,2.571,5.849,2.067,3.418,5.329,7.155,7.79,7.392,2.466.242,6.993-.792,8.188-1.427,1.19-.635,4.77-3.978,7.074-4.85,2.158-.817,4.941-1.145,6.721-.343.121.055.242.116.353.182M229.634,422.778h.005c.262,3.938.973,13.276,2.123,20.123.03.171.061.343.086.514M199.503,436.794v-.005c.232-1.16.454-2.445.661-3.802v-.005c.045-.318.096-.635.141-.958.696-4.84,1.22-10.351,1.523-14.002M343.084,411.136c-.121,6.091.025,15.948,1.835,22.407M308.138,432.357v-.005c.242-.943.459-2.002.65-3.141,1.024-6.015,1.467-14.239,1.659-19.508M280.276,240.335c.79.35,2.26,1.01,4.07,1.81,2.46,1.1,5.53,2.47,8.34,3.73q0,.01.01.01c2.68,1.2,5.12,2.31,6.55,2.98.01,0,.02.01.03.01,4.57,2.13,8.68,5.64,13.09,14.77s11.26,19.78,12.48,22.52,2.74,15.22,3.35,18.42c.6,3.19-2.13,7.91-3.2,10.81-1.05,2.83-5.17,8.9-8.2,8.12M313.543,327.816c.187-.207.368-.429.565-.681.842-1.074,1.79-2.355,2.687-3.625,1.155-1.618,2.239-3.222,2.955-4.356,1.276-2.022,4.684-7.77,4.684-10.321s-.323-12.877-.323-12.877M309.383,321.126c-1.225,11.213,1.896,9.484,3.237,8.355.388-.333.686-.923.923-1.654v-.01c.585-1.845.761-4.553.993-6,.318-2.022,2.128-6.277,3.086-10.538.958-4.255.529-16.069.529-16.069M295.059,272.223c.318,3.721,3.509,7.447,5.425,11.491s6.812,9.897,6.706,13.729c-.055,2.057-.146,7.266-.111,12.096v.01c.02,4.175.131,8.062.429,9.393.282,1.261,1.049,1.946,1.876,2.183,1.054.313,2.188-.116,2.491-1.013.529-1.593-.534-7.876-.106-10.855.424-2.98.741-14.687.741-14.687M307.079,309.539v.01c-.176.635-.383,1.21-.62,1.719-.751,1.608-1.699,2.304-2.551,2.299-1.054-.005-1.966-1.069-2.234-2.778-.479-3.111-.479-12.197-.479-14.587v-.055c-.02-2.37-1.245-4.361-2.198-6.262-.958-1.911-5.96-13.301-6.388-15.217-.424-1.916-.529-6.918-.635-8.087-.111-1.17-3.303-3.408-6.494-4.044-2.551-.509-8.773-2.178-11.168-2.824M310.165,101.794c1.059-1.654,3.035-4.765,3.756-6.106.867-1.613,2.168-6.66,3.06-9.383.136-.429.267-.797.383-1.089.02-.05.04-.101.066-.151,1.013-2.183,5.551-6.192,6.534-7.593.171-.242.469-1.018.847-2.143l.005-.005c.444-1.316.993-3.096,1.578-5.057M303.307,108.313c.504-.192,1.679-.237,2.894-.393,1.543-.202,3.161-.57,3.56-1.613.262-.681.368-2.491.403-4.513.055-3.519-.116-7.684-.116-7.684M306.201,107.92l-.161.378M265.578,105.303c.635,1.356,2.072,4.437,4.276,7.573.716,1.013,1.513,2.037,2.385,3.01.696.771,1.442,1.508,2.234,2.183,1.815,1.548,3.827,2.617,5.642,3.353,1.225.499,2.365.842,3.282,1.074M326.395,70.261v.005c-5.45,2.934-17.834,8.35-29.975,4.911-16.21-4.593-21.232-6.454-21.232-6.454l-10.039,12.479s1.578-16.644-1.15-21.232c-2.178-3.666-5.738-8.607-10.326-5.879-4.366,2.587-5.229,16.84-3.701,21.696.081.252.166.484.257.681,1.866,4.018,4.588,3.872,6.454,2.723l1.437,6.887M324.816,75.325c.7-.72,2.56-2.85,4.44-6.74h.01s0-.01,0-.01c.79-1.64,1.59-3.58,2.3-5.88,2.87-9.18,2.58-20.23,1.01-26.54-1.58-6.31-4.45-12.93-11.2-18.08-6.75-5.16-22.21-11.38-33.4-12.44-11.19-1.07-32.08,3.97-40.16,22.21-4.05,9.15-1.25,31.24-1.25,33.11,0,.83,0,4.07-.18,7.83-.1,1.87-.24,3.87-.45,5.76-.09.8-.19,1.59-.31,2.34M249.973,75.787l-4.306,1.921M309.554,378.171c9.287-2.667,26.425-50.591,26.425-50.591M204.338,370.487c11.38-2.072,30.328-14.98,30.328-14.98M303.882,314.132l-34.881-5.077M142.836,313.971l-39.605.494,73.462,9.207,34.961-2.496M303.857,314.591l-37.023,2.647M176.693,323.672v141.534M103.231,314.465v125.223M306,347.324v84.983M243.897,454.502l60.363-9.64M103.231,439.688l73.462,25.518.04.02,17.43-2.783"/>
  <g id="face">
    <ellipse class="cls-3" cx="295.814" cy="82.605" rx="2.197" ry="4.212" transform="translate(167.309 361.561) rotate(-80.868)"/>
    <ellipse class="cls-3" cx="314.649" cy="85.598" rx="2.801" ry="1.946"/>
    <path class="cls-2" d="M318.297,77.75s2.891.711,3.243,1.156"/>
  </g>
</svg>