<?xml version="1.0" encoding="UTF-8"?>
<svg id="layer" xmlns="http://www.w3.org/2000/svg" viewBox="0 0 511 511">
  <defs>
    <style>
      .cls-1 {
        fill: none;
        stroke: #000;
        stroke-linecap: round;
        stroke-linejoin: round;
        stroke-width: 1.5px;
      }
    </style>
  </defs>
  <path id="path" class="cls-1" d="M408.136,463.273c.01,0,.01.01.02.01,1.62,2.14,4.8,5.83,7.06,6.24,3.05.54,5.93,3.74,7.71,3.5s23.9-7.58,27-.96l.81,1.52c.59-.38,2.09,2.01,2.09,2.01,0,0,1.45,1.2-7.16,6.29-8.6,5.09-25.72,11.02-31.97,11.71-3.97.44-9.28.9-12.63,1.17-1.93.16-3.21.26-3.21.26l1.18,4.3s-25.42,8.92-27.97,5.32l-2.5-7.64.45-1.23s-.76-.19-1.93-3.58c-.61-1.73-1.27-7.28-1.29-10.95M361.666,422.013c.13,2.03.31,4.1.56,6.21,1.74,14.96-1.44,54.81-1.44,54.81,0,0,1.77.74,4.32-1.44.23-.12.46-.24.69-.35,1.85-.96,3.66-1.86,5.42-2.72,8.53-4.19,16.24-7.46,25-10.82,3.74-1.43,7.67-2.88,11.94-4.42l.03-.03s.01-1.43-.33-2.04c-8.13-14.24-7.66-37.28-4.52-55.35,2.53-14.59,7.81-27.38,7.21-52.64-.14-5.79-28.29-56.94-40.86-84.58-1.21-2.64-1.71-5.09-2.03-7.28-.32-2.18-.44-4.12-.89-5.75M361.666,422.003c-1.77-27.69,6.71-47.06,8.41-55.93.48-2.52.39-4.53-.75-6.3-7.87-13.35-11.39-16-21.62-28.12-4.15-4.91-12.99-17.61-21.53-29.51-7.54-10.52-14.84-20.42-18.44-23.75-6.98-6.44-14.61-14.3-18.73-24.41-.13-.32-.26-.65-.39-.98-1.69-3.87-1.3-12.72.82-20.87.02-.28.06-.55.09-.82M388.266,80.013c-1.06-1.6-13.69-.52-19.53,2.67-3.63,1.97-9.33,5.36-15.22,8.76M311.166,175.623c-1.59,3.36-3.21,6.8-4.25,10.26-.49,1.64-1.24,4.92-2.23,7.39h-.01M331.956,135.153c3.04.13,12.7-1.13,19.67-2.4M402.106,66.333c-.08-.06-.13-.1-.15-.11l-.01-.01c-.55-.22-1.73-1.71-2.4-1.22-2.13,1.54-1.54,1.69-3.24,3.71-.02,0-.03,0-.05.01M412.116,160.403c2.56-7.45,2.79-15.47,4.33-23.25h.01v-.02c.3-1.35.58-2.59.81-4.04.38-7.35,3.19-16.61,3.35-23.32,0-.13.01-.26,0-.38.04-2.44-.22-2.31-.37-3.83-.25-2.36-.6-3.49-1.06-5.51-1.04-4.53-2.65-9.73-4.12-13.89-.01-.04-.02-.07-.03-.1-1.12-3.18-2.38-6.46-3.67-8.91-2.51-4.77-5.43-7.54-9.25-10.82M409.766,165.743c.96-1.73,1.73-3.51,2.35-5.33M409.736,165.813c-.57,1.2-.65,2.48-.92,3.76-.02.08-.05.18-.05.23,0,0-.01,0-.01.01M408.306,171.613c.36-.56.78-1.13.45-1.79v-.01M272.376,230.343s12.91-2.18,16.23.3c.31.23.62.45.92.67,2.48,1.75,4.62,2.88,5.7,3.56.55.35,6.17,3.74,9.33,5.86,10.52,7.06,32.85,16.9,44.82,20.08,8.38,2.22,13.72-.97,17.39-5.2,2.97-3.43,4.85-7.54,6.33-9.99,1.14-1.86,2.9-5.97,4.76-10.68,1.51-3.85,3.09-8.09,4.43-11.82,1.83-5.08,3.21-9.19,3.39-10.01.12-.54.89-2.23,2.01-4.54,1.35-2.76,3.21-6.39,5.09-9.95,2.79-5.28,5.63-10.41,6.9-12.32,1.37-2.05,3.44-6.11,5.23-9.79.47-18.71,9.87-64.56,8.12-71.66-1.06-4.31-4.73-14.45-4.73-14.45.46-.57,1.93-1.55,3.52-2.5.06-.04.12-.07.18-.11l-.49-.39v-.01s-6.51-5.24-6.51-5.24c-.12-1.15-7.64-11.88-8.74-13.44-3.1.13-10.3,2.8-12.05,5.26-5.61,1.75-7.89,2.89-13.84,5.16-5.77,2.21-13.03,6.77-16.85,12.31h-.01c-3.84,2.23-7.77,4.47-11.26,6.33-6.13,3.27-10.28,8.7-16.23,11.17-9.07,3.77-17.36,8.95-19.69,12.01-1.84,2.42-2.47,6.76-4.18,10.01-5.19,9.84-9.84,20.73-12.47,29.18-3.5,11.24-7.19,16.8-9.64,27.04,1.13.71,2.61,1.43,4.12,1.94.08.03.15.05.23.08,4.17,1.37,11.48,3.48,15.1,3.94,3.21.41,3.16.9,5.19.13.02,1.35.03,3.12-.06,3.98,1.77,1.68,5.3,5.04,5.76,5.42.62.51,2.12,2.04,2.27,2.33.13.28-.32,1.08.62,3.51.07.2.16.4.25.62,1.29,2.92,2.35,5.22,2.35,5.58s-1.79,2.27-2.74,2.74c-.2.1-.34.22-.45.35-.4.48-.26,1.07-.35,1.33-.11.33-.87,3.18-2.95,3.03-2.09-.14-2.56-1.82-2.74-2.18-.01-.01-.01-.02-.02-.03-.21-.22-.8,1.35-1.04,1.75-.26.39-3.18,2.95-4.82-1.06,0,0-1.13,1.02-1.64,1.28s-2.48.51-3.66-2l-.62-1.61s-2.19,1.46-3.61-.65c-.82-1.21-2.33-4.33-3.57-7.1-7.53,9.89-15.28,19.78-15.28,19.78ZM331.956,135.153c-.38.09-.72.19-1.04.29-3.08.97-3.68,1.3-5.04,2.32-1.53,1.13-1.36.95-2.51,6.73-1.29,6.5-7.06,17.64-8.11,21.25-.92,3.18-2.49,6.49-4.09,9.87,1.07-1.15,2.25-2.34,3.56-3.55,5.81-5.36,12.48-24.24,17.23-36.91ZM408.306,171.613v.01c-.84,1.13-2.29,2.6-3.4,4.89M311.166,175.613v.01M416.696,150.073c.98-2.22,1.95-4.44,2.86-6.56v-.01c.63-1.47,1.22-2.88,1.78-4.2.84-2.04,1.48-4.67,1.94-6.93.44-2.23.71-4.1.81-4.74.45-2.78.87-8.33.86-15.17M416.696,150.103c-1.6,3.62-3.21,7.22-4.58,10.3v.01c-.92,2.06-1.73,3.89-2.35,5.33-.01.02-.02.05-.03.07M387.696,208.573c2.12,2.29,4.56,2.11,4.56,2.11,5.32.35,12.61-1.86,16.37-2.39,5.71-.82,10.45-.46,19.53-.76,5.25-.17,12.28,2.3,16.74,1.68.37-2.5-.13-3.27-.1-5.35-.01-.05-.01-.11-.01-.16-.11-1.41-.21-2.8-.31-4.18-.42-5.3-.92-10.34-2.2-15.25-.07-.3-.16-.59-.24-.89-.01-.05-.02-.09-.03-.13-.04-.13-.06-.21-.08-.25M404.616,182.243c4.19-4.33,9.47-22.44,12.08-32.14v-.03M404.616,182.243c2.49-.17,9.74.2,15.42,1.2,7.46,1.32,13.97-.1,21.82-.69.03.09.04.15.06.19v.03c.01.02.01.03.01.03M444.766,203.703h.02c2.12-.45,4.24-.93,6.38-1.31.08-1.29.36-1.53.14-3.17-.01-.09-.04-.22-.08-.39-.13-.56-.41-1.5-.72-2.58-1.06-3.74-2.74-8.97-3.39-13.21-.02-.19-.05-.37-.08-.55-.03-.26.01-.09.01-.25-1.7.25-3.38.59-5.04,1.01h-.01M419.206,100.053l1.98,3.27s3.66-5.82,5.16-6.79c.15-.09.28-.13.38-.12,0,0-.23-.77-.61-1.91-.87-2.68-2.52-7.46-3.68-9.3-1.66-2.63-10.1-15.91-14.95-17.71-2.27-.85-4.09-1.11-5.37-1.16h-.01M415.046,86.053s-.01,0-.01.01c-.86.47-1.96,1.09-3.04,1.73M329.066,193.613c3.12,1.38,27.21,13.36,28.84,14.73,1.62,1.38,6.49,2.75,7.74.13l2.37-9.49s-22.6-18.1-34.83-18.47c0,0-5.11,5.36-5.49,6.11-.37.75-1.75,5.62,1.37,6.99ZM351.626,132.753h.01c4.47-1.57,9.46-3.51,12.39-4.1,4.28-.85,7.81-1.65,9.24-2.18,1.33-.51,6.67-1.65,12.23-4.21,3.65-1.67,7.4-3.96,10.19-7.08,1.46-1.64,1.86-3.53,2.5-5.71,2.5-8.56,1.47-16.13,1.47-16.13M430.956,77.973c-1.77,2.92-3.66,7.93-4.84,16.53M420.666,109.393c1.35,1.03,3.57,2.68,4.2,3.03.03.02.06.03.08.04.04.02.07.03.08.03.33,0,1.1-.98,1.86-1.85.76-.88.65-7,.98-8.64.25-1.2-.9-4.05-1.52-5.47M416.446,137.153q.01-.01.01-.02c4.11-4.69,5.71-11.59,5.71-11.59,1.14-2.02,2.32-9.72,2.32-10.1,0-.24.2-1.74.38-3.02M304.676,193.083v.19M284.086,189.313c-.23,2.63.45,5.32.45,5.32.29.41.63.76,1.01,1.08,3.37,2.8,9.98,2.52,14.16,2.51,4.65,0,4.82-.52,4.82-.52.04-.08.07-.24.09-.45M285.546,195.713c-1.64,4.06-.32,8.75.15,10.2.22.67,1.01,2.56,1.96,4.65M312.576,208.693s-.29,2.16-.29,2.89-.26,3.32-.26,3.32l.65,2.9M307.176,214.873l-.56,5.08M300.756,220.643l-.37-4.38M294.836,218.313l.33-1.17M475.426,189.793s3.96-.88,4.29-1.2c.32-.32,2.75-2.41-.07-4.28,0,0,1.79-3.07-.79-4.37h-.01c.1-.14,2.36-3.74-1.35-5.25v-.01c.08-.15.69-1.41,0-2.1,0,0,2.44-2.09.9-2.82-1.53-.73-1.52-.06-3.5-1.09-1.99-1.03-4.03-2.24-4.79-1.97-.75.27-4.56,2.61-5.52,2.78-.97.18-5.25,1.38-6.83,3.36-1.57,1.99-1.95,5.78-3.03,7.05-1.09,1.26-2,1.8-2.51,1.89-.24.04-2.62.64-5.1,1.26M451.226,198.833c2.81-.28,5.24-.5,6.07-.53,2.34-.07,7.68-.37,11.49-3.35,3.67-2.88,6.44-5,6.63-5.15M477.496,172.583s-3.7,1.16-5.15.37c-1.45-.78-1.7-.53-1.7-.53,0,0-.05.72-1.07,1.35-.85.52-2.89,1.04-3.57,1.2M462.816,189.693s2.25-2.23,2.5-5.29c.06-.41.12-.8.18-1.18.19-1.33.32-2.48.42-3.48.21-2.32.18-3.82.08-4.77-.13-1.32-.41-1.6-.41-1.6M478.846,179.943s-5.22,3.27-5.75,3.32c-.54.04-6.03.85-6.03.85-3.07,1.79-.3,3.11.13,3.26.15.05.79.07,1.61.07,1.64-.01,3.97-.12,4.42-.25.68-.19,6.42-2.88,6.42-2.88M465.906,179.743h.01c.24-.06,4.28-1.06,4.76-1.15.49-.1,2.77-1.21,3.21-1.55s3.61-2.36,3.61-2.36M465.486,183.223h.01c.7.53,1.57.89,1.57.89M468.806,187.523c-.54,2.38,3.63,2.49,4.31,2.69.64.18,2.14-.36,2.3-.41l.01-.01M177.096,300.733c-1.98-2.75-6.44-7.75-13.73-9.54,0,0-4.33-3.47-5.61-3.48-1.29,0-13.21,18.54-13.63,20.55-.41,2,.1,1.15.1,1.15l2.8,1.74s-10.38,11.96-12.06,14.17c-.78,1.04-3.04,4.59-5.43,8.84-2.72,4.82-5.6,10.53-6.7,14.49-2.06,7.46-2.83,13.66-2.83,13.66l3.15.33.44-1.15s3.08,2.51,6.98-3.07c3.89-5.58,6.19-10.94,11.02-15.15,5.44-2.73,16.57-6.97,16.57-6.97,0,0,2.92-.36,3.75-1.09.19-.17.45-1.31.76-2.99,1.01-5.52,2.53-16.89,3.74-18.68s4.78-7.45,8.49-9.85M288.896,254.033c-.01.02-.01.03-.01.04-1.27,4.6-1.89,10.57-2.72,12.63-9.83,24.59-24.26,39.08-29.69,51.81-.95,2.22-1.31,3.61-2.03,4.21,0,0-.01,0-.01.01-.03.02-.05.04-.08.06,0,0-.01,0-.01.01-1.4.99-5.93-.49-10.54-2.62-13.99-6.48-18.71-9.97-30.85-11.94-12.16-1.96-31.78-6.71-35.86-7.51-.46-.09-.71-.14-.71-.14,0,0-.59,1.11-1.48,3.1-2.38,5.31-6.87,14.88-7.92,27.2-.31,3.62-.32,7.47.11,11.52,0,0,31.3-.08,42.02,2.6h.02c14.89,3.72,17.18,5.6,39.14,12.54,12.44,3.92,31.64-7.44,38.23-14.43,1.37-1.46,9.71-10.9,19.7-21.34,6.45-6.76,13.59-13.94,19.97-19.64M255.116,340.213s1.48-8.11-.68-17.48c-.01-.07-.02-.13-.04-.2,0,0-.02.1-.05.27-.27,1.45-1.55,8.33-2,11.53M395.206,130.543c3.47,3.47,13.19,4.16,13.19,4.16M313.036,139.313c4.1-2.87,12.84-1.55,12.84-1.55,0,0-4.74-4.88-10.27-4.68M401.646,185.813c2-1.43,2.97-3.57,2.97-3.57M371.216,478.523c2.36-.26,5.82-.61,7.19-.61,1.62,0,12.42-6.76,17.81-10.21.01,0,.03-.01.04-.02M361.666,422.003v.01c3.79,11.19,9.79,25.16,17.31,29.99M429.346,76.573s.62.59,1.61,1.4c1,.83,2.38,1.88,3.91,2.8,1.31.8,2.74,1.49,4.12,1.85,5.62,1.49,5.86-3.42,6.2-4.72.34-1.31,2.31-1.9,2.55-2.26.22-.35.59-3.32.59-3.32,0,0,2.06-1.54,2.33-2.03.26-.49-.44-4.7,1.42-4.36,1.85.35,4.35-.67,5-1.61.67-.93-2.68-7.8-3.11-10.4-.43-2.62,2.65-7.52,3.43-9.4.07-.18.25-.62.48-1.26M401.946,66.213c.95-2.08,1.58-4.6,1.47-7.54v-.01M423.016,33.683c-.01,0-.01.01-.02.01-1.74.33-3.01,1.42-3.89,2.56-.87,1.13-1.35,2.31-1.48,2.82-.27,1.03-.11,10.95,3.44,12.02,3.57,1.07,4.52.08,4.52.08M457.876,43.263c1.59-.82,2.53-1.48,2.53-1.48,5.01-41.16-39.4-36.45-40.74-35.8-1.62.79-1.53,1.38-1.53,1.38-31.84,9.37-15.11,51.55-15.11,51.55.13-.09.26-.17.39-.24,1.22-.66,2.02-.62,3.88.01,1.66.57,5.92-6.95,6.49-8.37,1.36-2.96,1.48-12.96,4.37-15.64,1.9-1.01,3.51-1.24,4.84-.98,2.48.49,4.04,2.71,4.96,4.8.93,2.09,1.24,4.06,1.24,4.06l.81,9.96,8.16-7.3c7.38,3.5,15.65.18,19.71-1.95ZM167.256,330.883c-.09,0-.18,0-.27.01-1.67.06-3.2.44-4.31,1.33M369.016,495.773c2.84,3.17,25.37-3.47,25.37-3.47h3.94c.77.02,1.62,0,2.53-.07,10.19-.76,28.32-6.96,37.51-10.85,10.01-4.25,12.37-7.8,12.37-7.8M163.366,291.193c-7.01,4.24-10.68,19.03-12.08,19.38-1.33.32-1.46.92-2.37,1.68-.93.78-12.59,15.17-17,22.71-.45.77-.83,1.48-1.11,2.09-3.91,8.51-7.21,24.44-7.21,24.44M384.716,211.563c.55-.28,1.8-1.25,1.53-3.75-.16-1.38-2.78.27-2.78,1.25s.69,2.77,1.25,2.5ZM359.726,170.163c2.53,9.63,14.68,28.25,17.84,30.62M370.076,366.073c3.6,1.62,10.71,4.24,16.03,2.36,0,0-8.29-1.31-16.78-8.66M395.446,186.813c0,1.05,1.04,2.08,1.51,1.7.48-.37,2.82-4.11,1.32-4.34-1.22-.19-2.83,1.6-2.83,2.64ZM368.026,261.363c2.9-6.16,7.96-20.37,9.83-26.42M187.996,334.733c7.27,5.09,21.14,10.28,21.14,10.28"/>
</svg>