<svg xmlns="http://www.w3.org/2000/svg" xmlns:xlink="http://www.w3.org/1999/xlink" width="154.443" height="185.462" viewBox="0 0 154.443 185.462">
  <defs>
    <clipPath id="clip-path">
      <rect id="長方形_169" data-name="長方形 169" width="82.042" height="166.786" fill="none"/>
    </clipPath>
  </defs>
  <g id="グループ_8656" data-name="グループ 8656" transform="translate(83.393) rotate(30)">
    <g id="グループ_8655" data-name="グループ 8655" transform="translate(0 0)" clip-path="url(#clip-path)">
      <path id="パス_9964" data-name="パス 9964" d="M72.133,166.786H9.906A9.906,9.906,0,0,1,0,156.878V9.908A9.906,9.906,0,0,1,9.906,0H72.133a9.909,9.909,0,0,1,9.908,9.908V156.878a9.909,9.909,0,0,1-9.908,9.908" transform="translate(0 0)" fill="#1a1311"/>
      <path id="パス_9965" data-name="パス 9965" d="M67.228,159.74H6.34A6.341,6.341,0,0,1,0,153.4V6.343A6.341,6.341,0,0,1,6.34,0H67.228a6.344,6.344,0,0,1,6.343,6.343V153.4a6.344,6.344,0,0,1-6.343,6.343" transform="translate(4.235 3.713)" fill="#fff"/>
      <path id="パス_9966" data-name="パス 9966" d="M36.761,10.305H3.864A3.864,3.864,0,0,1,0,6.441V3.864A3.864,3.864,0,0,1,3.864,0h32.9a3.866,3.866,0,0,1,3.864,3.864V6.441a3.866,3.866,0,0,1-3.864,3.864" transform="translate(20.708 0.874)" fill="#1a1311"/>
      <path id="パス_9967" data-name="パス 9967" d="M9.612,2.18H1.09A1.09,1.09,0,1,1,1.09,0H9.612a1.09,1.09,0,1,1,0,2.18" transform="translate(32.647 5.828)" fill="#fff"/>
      <path id="パス_9968" data-name="パス 9968" d="M1.09,2.18h0A1.09,1.09,0,1,1,2.18,1.09,1.089,1.089,0,0,1,1.09,2.18" transform="translate(47.216 5.828)" fill="#fff"/>
    </g>
  </g>
</svg>
