<svg xmlns="http://www.w3.org/2000/svg" xmlns:xlink="http://www.w3.org/1999/xlink" width="189.819" height="209.998" viewBox="0 0 189.819 209.998">
  <defs>
    <clipPath id="clip-path">
      <rect id="長方形_167" data-name="長方形 167" width="130.81" height="152.048" fill="none"/>
    </clipPath>
  </defs>
  <g id="グループ_8653" data-name="グループ 8653" transform="translate(-1.249 2.501) rotate(-1)">
    <path id="パス_9963" data-name="パス 9963" d="M106.916,144.64,83.192,124.506S16.072,147.237,1.607,80.34,75.092,2.4,75.092,2.4s56.7-16.237,71.17,35.722-25.46,71.444-43.975,78.588C104.6,135.547,106.916,144.64,106.916,144.64Z" transform="matrix(0.946, -0.326, 0.326, 0.946, 0, 71.591)" fill="#f9584d"/>
    <path id="パス_9969" data-name="パス 9969" d="M2.2.265,98.432,0l.338,125.071L0,124.26Z" transform="translate(11.421 30.192) rotate(-17)" fill="#fff"/>
    <g id="グループ_8652" data-name="グループ 8652" transform="translate(12.472 0)">
      <g id="グループ_8651" data-name="グループ 8651" clip-path="url(#clip-path)">
        <path id="パス_9934" data-name="パス 9934" d="M34.783,149.707a.9.9,0,0,1-.9-.944c.136-3.2-.145-6.457-.6-6.959-1.072-1.169-2.722-2.668-2.736-2.682a.9.9,0,0,1-.292-.789l.793-5.87c-.678-.55-2.048-1.662-2.669-2.111-.352-.262-1.265-.934-.159-6.875a31.374,31.374,0,0,1-3.158-4.4,4.52,4.52,0,0,1,.12-2.845,4.414,4.414,0,0,0,.224-1.58,26.778,26.778,0,0,1-2.56-3.727c-.407-.673-.317-1.815-.139-3.62a11.26,11.26,0,0,0,.1-2.535,7.328,7.328,0,0,0-.911-.871c-.913-.8-2.046-1.788-2.244-3.045-.2-1.288-.3-4.594-.332-5.643-1.037-1.242-3.017-3.7-3.274-4.6a5.864,5.864,0,0,1,.178-2.4c.157-.886.487-2.722.193-3.152l-.466-.655c-1.087-1.5-2.728-3.775-2.65-5.557a9.835,9.835,0,0,1,.315-1.826c.31-1.288.468-2.109-.141-2.772-1.364-1.484-2.988-4.413-2.936-5.708a9.4,9.4,0,0,1,.239-1.358,9.566,9.566,0,0,0,.325-3.874,14.829,14.829,0,0,0-1.57-2.968,10.454,10.454,0,0,1-1.406-2.764c-.1-.466-.157-.9-.222-1.375a25.49,25.49,0,0,0-.5-2.74A5.469,5.469,0,0,0,5.935,51.16a4.482,4.482,0,0,1-1.259-1.981c-.223-1.074-.357-4.537-.4-5.662-.661-.808-2-2.61-1.949-3.872a24.873,24.873,0,0,0-.189-2.594,23.8,23.8,0,0,1-.2-2.835,27.206,27.206,0,0,0-1.87-5.425.9.9,0,0,1,.581-1.225C35.419,17.65,87.69,2.419,91.758.383a.905.905,0,0,1,1.112-.3.975.975,0,0,1,.558.926c-.063.85-.145,2.008-91.3,28.018.65,1.595,1.662,4.249,1.616,5.269a25.634,25.634,0,0,0,.189,2.575,23.431,23.431,0,0,1,.2,2.858,7.529,7.529,0,0,0,1.725,2.863.893.893,0,0,1,.216.558c.042,1.272.187,4.766.372,5.668a3.7,3.7,0,0,0,.831,1.131,7.13,7.13,0,0,1,1.88,3.106,27.389,27.389,0,0,1,.535,2.913c.061.434.111.827.2,1.261A11.317,11.317,0,0,0,11.07,59.4a15.459,15.459,0,0,1,1.765,3.421,10.458,10.458,0,0,1-.3,4.757,8.573,8.573,0,0,0-.2,1.047A11.256,11.256,0,0,0,14.8,73.035c1.289,1.406.89,3.079.566,4.42a8.5,8.5,0,0,0-.268,1.482c-.05,1.15,1.485,3.276,2.313,4.42l.491.692c.714,1.039.4,2.793.093,4.491a9.5,9.5,0,0,0-.214,1.606A32.078,32.078,0,0,0,20.9,94.293a.913.913,0,0,1,.212.562c0,.044.1,4.332.319,5.721.094.609.991,1.393,1.647,1.964a6.43,6.43,0,0,1,1.282,1.335c.407.673.317,1.811.138,3.611a11.445,11.445,0,0,0-.095,2.543,27.439,27.439,0,0,0,2.34,3.423c.772.837.46,2.1.187,3.215a4.235,4.235,0,0,0-.223,1.675,32.965,32.965,0,0,0,3.169,4.306.908.908,0,0,1,.191.751c-.493,2.546-.717,5.133-.491,5.645.72.468,3,2.342,3,2.342a.9.9,0,0,1,.323.818l-.8,5.9c.561.521,1.674,1.572,2.5,2.476,1,1.087,1.129,4.585,1.108,6.8,1.257-.558,3.322-1.465,5.807-2.521a.9.9,0,0,1,.707,1.665c-4.118,1.75-7.072,3.093-7.076,3.1a.948.948,0,0,1-.375.082" transform="translate(0 0.792)" fill="#1a1311"/>
        <path id="パス_9935" data-name="パス 9935" d="M37.663,152.048a.891.891,0,0,1-.472-.134.906.906,0,0,1-.432-.77c0-3.209-.42-6.448-.9-6.931-1.121-1.117-2.831-2.543-2.85-2.556a.9.9,0,0,1-.319-.777l.533-5.9c-.7-.518-2.121-1.57-2.757-2-.361-.239-1.3-.871-.453-6.86a31.215,31.215,0,0,1-3.345-4.252,4.5,4.5,0,0,1,0-2.848,4.462,4.462,0,0,0,.155-1.591,27.074,27.074,0,0,1-2.68-3.557c-.472-.707-.433-1.853-.334-3.664a11.207,11.207,0,0,0-.015-2.537,6.849,6.849,0,0,0-.945-.831c-.944-.76-2.119-1.7-2.367-2.948-.256-1.278-.5-4.575-.577-5.62-1.091-1.2-3.173-3.568-3.471-4.46a5.93,5.93,0,0,1,.076-2.407c.121-.888.371-2.734.058-3.15l-.487-.628c-1.152-1.456-2.894-3.658-2.894-5.444a9.578,9.578,0,0,1,.237-1.838c.254-1.3.373-2.126-.261-2.76C11.735,76.152,9.992,73.294,9.992,72a9.816,9.816,0,0,1,.178-1.359,9.52,9.52,0,0,0,.158-3.882,14.849,14.849,0,0,0-1.692-2.892,10.539,10.539,0,0,1-1.528-2.7,4.625,4.625,0,0,1,.292-2.35,5.293,5.293,0,0,0,.3-2.856,6.066,6.066,0,0,0-1.736-2.369,4.786,4.786,0,0,1-1.473-2.027c-.279-1.119.235-3.964.481-5.19-1.045-1.183-2.839-3.395-2.839-4.629,0-.606.076-1.366.153-2.124.067-.7.138-1.392.138-1.948a26.221,26.221,0,0,0-2.317-5.3.9.9,0,0,1,.508-1.282C34.127,19.817,84.557,2.537,88.242.405a.639.639,0,0,1,.107-.128.882.882,0,0,1,.963-.214,1.017,1.017,0,0,1,.546.562.871.871,0,0,1,.042.18c.243.781.952,3.452,2.216,8.222,2.932,11.091,7.842,29.652,9.72,34.208,1.412,3.429,3.416,11.194,5.357,18.7,1.776,6.883,3.614,14,4.724,16.587,2.31,5.4,10.071,27.445,10.4,28.38l3.8,13.437a.905.905,0,0,1-.586,1.1l-23.568,7.857c-.027.007-28.259,8.447-37.283,11.066-8.835,2.566-26.433,11.487-26.612,11.578a.911.911,0,0,1-.409.1m-3.127-11.475c.579.5,1.737,1.5,2.6,2.363,1.041,1.043,1.331,4.535,1.4,6.753,4.272-2.132,17.951-8.82,25.638-11.053,9.02-2.621,37.241-11.053,37.241-11.053l22.723-7.576-3.551-12.554c-.063-.176-8.048-22.868-10.337-28.212-1.167-2.716-2.936-9.582-4.814-16.851-1.922-7.45-3.914-15.152-5.278-18.467-1.924-4.663-6.852-23.3-9.8-34.431C89.518,6.29,88.8,3.585,88.418,2.2,80.332,5.952,38.261,20.331,2.2,32.461c.8,1.572,2.038,4.174,2.038,5.2,0,.606-.076,1.366-.151,2.124-.069.7-.138,1.391-.138,1.947a13.654,13.654,0,0,0,2.673,3.759.9.9,0,0,1,.216.8,19.419,19.419,0,0,0-.588,4.827A4.408,4.408,0,0,0,7.238,52.3a7.506,7.506,0,0,1,2.2,3.156,6.793,6.793,0,0,1-.3,3.859,4.206,4.206,0,0,0-.273,1.408,11.136,11.136,0,0,0,1.272,2.128,15.654,15.654,0,0,1,1.91,3.337,10.518,10.518,0,0,1-.093,4.764A8.067,8.067,0,0,0,11.8,72a11.257,11.257,0,0,0,2.644,4.313c1.349,1.345,1.022,3.03.759,4.384a8.178,8.178,0,0,0-.2,1.492c0,1.156,1.624,3.217,2.5,4.321l.516.663c.76,1.009.516,2.774.283,4.48a9.559,9.559,0,0,0-.145,1.614,32.383,32.383,0,0,0,3.295,4.021.892.892,0,0,1,.237.55c0,.042.294,4.323.569,5.7.118.6,1.047,1.348,1.727,1.893a6.446,6.446,0,0,1,1.337,1.276c.432.653.394,1.794.294,3.6a11.356,11.356,0,0,0,.019,2.543,26.8,26.8,0,0,0,2.484,3.318c.8.808.548,2.082.319,3.209a4.329,4.329,0,0,0-.151,1.683,33.351,33.351,0,0,0,3.352,4.159.913.913,0,0,1,.227.743c-.384,2.566-.495,5.16-.247,5.664.74.443,3.1,2.206,3.1,2.206a.9.9,0,0,1,.359.806Z" transform="translate(4.656 0)" fill="#1a1311"/>
        <path id="パス_9936" data-name="パス 9936" d="M12.549,54.182a.892.892,0,0,1-.418-.1.906.906,0,0,1-.447-.533c-1.532-4.917-5.658-17.978-6.35-19.361-.886-1.775-4.856-16.8-5.3-18.5A.9.9,0,0,1,.589,14.6L21.833,6.747,41.35.05a.9.9,0,0,1,1.139.539l6.4,17.166,6.128,20.717a.906.906,0,0,1-.547,1.1c-.178.065-17.756,6.694-19.185,7.265-1.469.588-21.608,7.022-22.462,7.295a.894.894,0,0,1-.275.046M1.987,16.014C3.744,22.643,6.369,32.206,6.95,33.377c.8,1.6,4.986,14.912,6.191,18.761,7.427-2.373,20.389-6.543,21.474-6.976,1.285-.516,14.94-5.666,18.432-6.982l-5.87-19.852L41.1,2.046l-18.66,6.4Z" transform="translate(13.481 20.467)" fill="#1a1311"/>
        <path id="パス_9937" data-name="パス 9937" d="M6.143,24.8a.9.9,0,0,1-.862-.64L.041,7.135A.9.9,0,0,1,.456,6.086L3.512,4.337a.886.886,0,0,1,1.022.088l10.3,8.505L11.816,2.016A.9.9,0,0,1,12.334.944,10.4,10.4,0,0,1,15.161,0c.85,0,1.1,0,6.245,16.641a.9.9,0,0,1-.491,1.093L16.7,19.623a.916.916,0,0,1-.951-.135L7.667,12.74l3.547,9.972a.913.913,0,0,1-.065.747.9.9,0,0,1-.6.441l-4.218.875a.888.888,0,0,1-.183.021M1.982,7.294,6.764,22.838l2.4-.5L4.855,10.224a.9.9,0,0,1,1.433-.992l10.184,8.508,2.969-1.329c-1.88-6.067-3.983-12.556-4.747-14.457-.258.093-.585.219-.921.353l3.57,12.908a.9.9,0,0,1-1.444.938L3.866,6.216Z" transform="translate(29.341 71.387)" fill="#1a1311"/>
        <path id="パス_9938" data-name="パス 9938" d="M7.306,25.385a.933.933,0,0,1-.382-.084.914.914,0,0,1-.47-.514L.053,7.034A.907.907,0,0,1,.544,5.9L13.929.077a.873.873,0,0,1,.693-.01.9.9,0,0,1,.5.483L16.43,3.607a.9.9,0,0,1-.556,1.217L6.391,7.854,7.769,10.7l8.554-2.938a.9.9,0,0,1,1.093.436l1.6,3.053a.9.9,0,0,1-.514,1.278L9.356,15.583,10.727,19.2l8.587-3.7a.9.9,0,0,1,1.131.367l1.746,2.908a.9.9,0,0,1,.079.764.91.91,0,0,1-.539.548L7.621,25.327a.867.867,0,0,1-.315.059M2.043,7.216l5.8,16.1,12.237-4.541-.778-1.3-8.732,3.758a.906.906,0,0,1-1.2-.51L7.333,15.344a.906.906,0,0,1,.561-1.179l9.03-3.014-.747-1.423L7.6,12.672a.9.9,0,0,1-1.108-.462L4.311,7.705a.9.9,0,0,1,.54-1.255l9.527-3.045L13.816,2.1Z" transform="translate(47.818 63.671)" fill="#1a1311"/>
        <path id="パス_9939" data-name="パス 9939" d="M9.2,24.795a.9.9,0,0,1-.818-.518l-8.3-17.6a.9.9,0,0,1-.021-.718.91.91,0,0,1,.51-.51L3.92,4.134a.9.9,0,0,1,1.171.51c.076.191,1.032,2.6,2.036,5.2-.151-2.258-.273-4.208-.284-4.378a.907.907,0,0,1,.539-.886L9.708,3.568a.9.9,0,0,1,1.075.275L15.7,10.176l-2-7.889a.9.9,0,0,1,.527-1.055L17,.072a.882.882,0,0,1,.758.03.889.889,0,0,1,.47.594L22.59,18.881a.906.906,0,0,1-.583,1.064L18.66,21.109a.918.918,0,0,1-1.02-.313L11.777,12.98l1.087,9.643a.911.911,0,0,1-.55.938L9.55,24.723a.906.906,0,0,1-.35.071M2.134,6.777,9.647,22.721l1.343-.567L9.607,9.882a.907.907,0,0,1,1.624-.646l7.46,9.947,1.95-.678L16.714,2.151,15.648,2.6l2.869,11.324a.9.9,0,0,1-1.591.777L9.788,5.507l-1.1.483c.128,2.05.542,8.5.739,10.232a1.247,1.247,0,0,1,.048.825.927.927,0,0,1-.867.63c-.833,0-.928-.814-.978-1.248C7.158,14.837,4.652,8.453,3.744,6.147Z" transform="translate(65.273 58.002)" fill="#1a1311"/>
        <path id="パス_9940" data-name="パス 9940" d="M10.129,24.121a8.815,8.815,0,0,1-4.9-1.53A10.812,10.812,0,0,1,1.764,17.96a.9.9,0,0,1,.441-1.133l3.834-1.912a.9.9,0,0,1,1.213.4c.374.741,1.746,2.852,3.123,2.852a2.334,2.334,0,0,0,1.922-.883,1.546,1.546,0,0,0,.136-1.4c-.283-.779-2.2-1.325-4.407-1.954-.85-.241-1.779-.506-2.766-.823A7,7,0,0,1,.05,5.587C.394,2.821,4.157.443,7.315.038c4.168-.525,6.944,4.512,7.053,4.718a.9.9,0,0,1-.285,1.173L11.325,7.822a.909.909,0,0,1-.735.132.9.9,0,0,1-.581-.468A3.148,3.148,0,0,0,7.735,5.855h0A1.143,1.143,0,0,0,7.04,7.715c1.064,1.293,3.232,1.54,5.416,1.616,4.319.147,5.887,4.571,6.359,6.463.7,2.778-1.163,6.535-5.041,7.7a12.77,12.77,0,0,1-3.645.627M3.793,18.056a7.963,7.963,0,0,0,2.413,3.015,7.081,7.081,0,0,0,3.922,1.24,10.869,10.869,0,0,0,3.125-.55c2.892-.869,4.3-3.559,3.809-5.527-.376-1.5-1.58-4.993-4.669-5.1-2.606-.086-5.227-.424-6.753-2.275a2.885,2.885,0,0,1-.395-3.127A2.85,2.85,0,0,1,7.714,4.047a4.588,4.588,0,0,1,3.333,1.775l1.3-.9c-.793-1.16-2.569-3.37-4.8-3.091-2.392.3-5.473,2.147-5.7,3.979a5.247,5.247,0,0,0,3.972,5.572c.963.309,1.874.567,2.707.8,2.909.831,5.009,1.431,5.611,3.078a3.353,3.353,0,0,1-.325,3.008,4.016,4.016,0,0,1-3.236,1.7h-.007c-2.184,0-3.744-1.92-4.478-3.06Z" transform="translate(87.959 52.929)" fill="#1a1311"/>
        <path id="パス_9941" data-name="パス 9941" d="M13.128,50.689a.919.919,0,0,1-.393-.09.887.887,0,0,1-.468-.537L.043,12.233A.9.9,0,0,1,.625,11.1L34.376.041a.916.916,0,0,1,1.135.564l12.514,36.08a.9.9,0,0,1-.537,1.142L13.447,50.633a.979.979,0,0,1-.319.056M2.043,12.536,13.7,48.606,46.024,36.446,34.092,2.039Z" transform="translate(74.876 78.663)" fill="#1a1311"/>
        <path id="パス_9942" data-name="パス 9942" d="M1.139,12.884a2.34,2.34,0,0,1-.4-.036A.905.905,0,0,1,.014,11.8a.887.887,0,0,1,1.054-.726,4.136,4.136,0,0,0,1.557-.5,8.74,8.74,0,0,1,1.311-.512c.512-.13,1.014-.243,1.511-.361,1.018-.233,2.027-.466,3.043-.793l.867-.277a39.349,39.349,0,0,0,3.989-1.419c1.054-.47,2.132-.844,3.217-1.221.793-.277,1.591-.552,2.384-.871,1.028-.413,2.061-.8,3.093-1.194,1.54-.583,3.079-1.163,4.589-1.817l1.19-.508c.51-.214,1.018-.426,1.53-.653a7.429,7.429,0,0,1,1.089-.35A3.933,3.933,0,0,0,31.6.154a1.147,1.147,0,0,1,1.366.174,1.107,1.107,0,0,1,.262.864.935.935,0,0,1-1,.8.918.918,0,0,1-.174-.038,7.339,7.339,0,0,1-1.15.378,5.756,5.756,0,0,0-.833.26c-.518.229-1.034.445-1.553.663l-1.175.5c-1.534.665-3.1,1.259-4.665,1.851-1.024.386-2.044.772-3.06,1.182-.821.327-1.645.615-2.466.9-1.037.359-2.067.716-3.077,1.165A40.717,40.717,0,0,1,9.9,10.349l-.856.273c-1.066.344-2.122.589-3.192.835-.489.113-.98.227-1.471.35a6.6,6.6,0,0,0-1.007.405,5.7,5.7,0,0,1-2.237.672" transform="translate(58.002 8.731)" fill="#1a1311"/>
        <path id="パス_9943" data-name="パス 9943" d="M.9,13.254a.905.905,0,0,1-.233-1.779c1.511-.407,3.039-.976,4.516-1.528,1.251-.466,2.5-.929,3.769-1.316,2.925-.883,5.821-1.8,8.709-2.757,2.961-.98,5.882-2.223,8.711-3.423C28.309,1.631,30.239.81,32.2.059a.9.9,0,0,1,.644,1.689C30.907,2.491,29,3.3,27.083,4.113,24.22,5.33,21.262,6.587,18.232,7.59c-2.9.959-5.809,1.882-8.751,2.772-1.232.373-2.447.827-3.664,1.28-1.515.567-3.085,1.152-4.68,1.578a.894.894,0,0,1-.233.033" transform="translate(59.746 14.355)" fill="#1a1311"/>
        <path id="パス_9944" data-name="パス 9944" d="M.9,13.256a.9.9,0,0,1-.128-1.8,6.059,6.059,0,0,0,1.585-.646c.336-.174.663-.342.978-.472,1.446-.6,2.98-1.085,4.464-1.553l1.074-.344c1.591-.514,3.2-.976,4.816-1.437,1.96-.562,3.985-1.142,5.928-1.809,1.885-.646,3.761-1.381,5.635-2.113,1.154-.447,2.306-.9,3.456-1.326l1.3-.476C31.068.9,32.125.519,33.124.077a.9.9,0,0,1,.734,1.654c-1.039.462-2.134.856-3.234,1.251l-1.284.466c-1.139.426-2.283.871-3.427,1.32-1.9.741-3.8,1.481-5.706,2.134-1.989.686-4.038,1.272-6.019,1.84C12.594,9.2,11,9.65,9.432,10.16l-1.083.346c-1.448.46-2.946.934-4.317,1.5-.269.113-.554.26-.846.409a7.131,7.131,0,0,1-2.155.829.675.675,0,0,1-.128.01" transform="translate(61.299 19.981)" fill="#1a1311"/>
        <path id="パス_9945" data-name="パス 9945" d="M1.064,13.659a1.738,1.738,0,0,1-.334-.031.9.9,0,0,1-.714-1.06.887.887,0,0,1,1.047-.716A10.156,10.156,0,0,0,2.756,11.2c.273-.13.52-.245.705-.323C5.32,10.131,6.944,9.552,8.433,9.1c3.142-.94,6.306-2.17,9.368-3.36L19.208,5.2c1.383-.533,2.8-1.005,4.205-1.477,1.591-.531,3.232-1.083,4.8-1.714L29.2,1.6c.674-.284,1.349-.565,2.042-.819.277-.1.575-.189.877-.275a6.436,6.436,0,0,0,1.15-.4.9.9,0,1,1,.844,1.6,7.618,7.618,0,0,1-1.5.542c-.256.071-.51.147-.747.233-.665.243-1.316.516-1.966.789l-1,.414c-1.618.655-3.286,1.213-4.9,1.754-1.385.464-2.77.928-4.13,1.452l-1.4.544c-3.1,1.2-6.3,2.445-9.5,3.4-1.435.43-3.009.995-4.816,1.723-.159.063-.367.164-.6.273a6.362,6.362,0,0,1-2.474.827" transform="translate(63.046 25.215)" fill="#1a1311"/>
        <path id="パス_9946" data-name="パス 9946" d="M1.113,12.944a1.135,1.135,0,0,1-.86-.353.906.906,0,0,1,.963-1.477,6.714,6.714,0,0,0,.657-.256,5.484,5.484,0,0,1,.56-.225c.858-.27,1.7-.606,2.546-.938.631-.252,1.263-.5,1.9-.726,1.217-.435,2.485-.76,3.708-1.07.508-.132,1.018-.264,1.522-.4A33.76,33.76,0,0,0,15.3,6.371c.839-.325,1.679-.653,2.529-.928,3.03-.982,6.222-2.113,9.492-3.358.571-.218,1.157-.415,1.744-.613A21.143,21.143,0,0,0,32.476.109.906.906,0,0,1,33.342,1.7a23.03,23.03,0,0,1-3.7,1.49c-.566.189-1.131.378-1.679.583-3.295,1.259-6.518,2.4-9.578,3.391-.814.264-1.62.579-2.426.894-1.089.422-2.214.863-3.374,1.184-.512.14-1.032.275-1.553.4-1.182.3-2.407.619-3.55,1.026-.613.218-1.225.46-1.834.7-.886.35-1.771.7-2.674.986-.1.031-.233.092-.382.157a3.985,3.985,0,0,1-1.477.426" transform="translate(64.793 31.231)" fill="#1a1311"/>
        <path id="パス_9947" data-name="パス 9947" d="M1.094,13.1a1.348,1.348,0,0,1-.575-.119.9.9,0,0,1,.623-1.691A9.457,9.457,0,0,0,2.783,10.6c.269-.13.493-.239.648-.3,1.316-.535,2.643-1.034,3.979-1.53.978-.363,1.975-.653,2.974-.944s2.023-.588,3.009-.961a13.537,13.537,0,0,1,1.683-.483,12.605,12.605,0,0,0,1.431-.406c.375-.14.751-.3,1.125-.467a18.151,18.151,0,0,1,1.8-.707c2.867-.9,5.874-1.912,9.2-3.1C29.571,1.37,30.5,1.015,31.4.65a5.747,5.747,0,0,1,.8-.229,2.66,2.66,0,0,0,.749-.237.9.9,0,1,1,1.092,1.442,3.668,3.668,0,0,1-1.438.558,4.2,4.2,0,0,0-.533.143c-.913.374-1.87.737-2.833,1.079-3.347,1.2-6.38,2.221-9.267,3.127a16.575,16.575,0,0,0-1.616.638c-.4.176-.808.352-1.215.506a14.168,14.168,0,0,1-1.642.466,12.3,12.3,0,0,0-1.463.416c-1.03.392-2.085.7-3.148,1.009-.957.278-1.914.556-2.85.9-1.32.487-2.629.984-3.93,1.509-.126.053-.313.145-.531.252a6.608,6.608,0,0,1-2.482.866" transform="translate(66.343 36.661)" fill="#1a1311"/>
        <path id="パス_9948" data-name="パス 9948" d="M1.284,13.47a2.168,2.168,0,0,1-.653-.1.907.907,0,0,1-.4-1.465,1.043,1.043,0,0,1,1.2-.252,6.7,6.7,0,0,0,1.662-.668c.2-.1.38-.191.538-.264A30.472,30.472,0,0,1,7.346,9.38c.787-.245,1.57-.491,2.342-.778,1.183-.449,2.4-.781,3.572-1.1.931-.256,1.861-.51,2.77-.823.854-.294,1.694-.6,2.535-.917.94-.348,1.878-.7,2.831-1.02.7-.231,1.4-.455,2.1-.68a44.975,44.975,0,0,0,6.547-2.453A20.119,20.119,0,0,1,33.767.035a.9.9,0,1,1,.483,1.742,18.026,18.026,0,0,0-3.256,1.381,46.647,46.647,0,0,1-6.946,2.627q-1.045.334-2.077.671c-.93.315-1.851.659-2.774,1-.856.319-1.711.638-2.577.936-.947.323-1.912.59-2.882.854-1.133.306-2.3.627-3.41,1.047-.805.3-1.622.558-2.44.812A28.777,28.777,0,0,0,4.379,12.37L3.9,12.6a6.24,6.24,0,0,1-2.621.867" transform="translate(67.769 42.092)" fill="#1a1311"/>
        <path id="パス_9949" data-name="パス 9949" d="M1.253,14.539a1.346,1.346,0,0,1-.978-.376.9.9,0,0,1-.019-1.278.891.891,0,0,1,1.083-.163,7.26,7.26,0,0,0,1.4-.583c.221-.109.4-.2.527-.25.951-.386,1.926-.7,2.9-1.013.739-.237,1.478-.474,2.2-.747,1.639-.617,3.312-1.177,4.988-1.735,2.057-.69,4.182-1.4,6.206-2.212C25.031,3.989,30.893,1.868,36.51.044a.9.9,0,0,1,.558,1.721c-5.58,1.811-11.4,3.918-16.83,6.094-2.071.831-4.222,1.551-6.3,2.246-1.656.554-3.308,1.106-4.93,1.718-.751.282-1.519.527-2.283.772-.936.3-1.866.6-2.777.969-.1.038-.233.109-.4.191a5.728,5.728,0,0,1-2.3.783" transform="translate(32.976 88.261)" fill="#1a1311"/>
        <path id="パス_9950" data-name="パス 9950" d="M.9,14.815a.9.9,0,0,1-.468-1.679,31.886,31.886,0,0,1,5.895-2.527c.6-.21,1.2-.42,1.784-.638L9.495,9.45C11.01,8.88,12.536,8.305,14.07,7.81c.695-.222,1.391-.43,2.088-.636,1.36-.4,2.647-.778,3.92-1.293,1.119-.455,2.279-.818,3.438-1.184.856-.266,1.71-.531,2.547-.841.707-.256,1.408-.525,2.111-.793.934-.359,1.87-.716,2.812-1.045.525-.187,1.045-.39,1.563-.594.659-.258,1.32-.516,1.994-.745a3.557,3.557,0,0,0,.438-.206A2.749,2.749,0,0,1,36.738.024a.9.9,0,1,1-.287,1.784,4.044,4.044,0,0,0-.63.264,4.945,4.945,0,0,1-.7.319c-.652.222-1.284.468-1.916.714-.539.214-1.076.424-1.622.617-.928.325-1.847.678-2.766,1.028-.712.273-1.423.545-2.136.806-.863.317-1.746.592-2.627.869-1.112.348-2.224.695-3.3,1.129-1.358.552-2.749.961-4.092,1.358-.68.2-1.359.4-2.04.619-1.509.487-3.005,1.051-4.5,1.612l-1.387.522c-.594.225-1.2.437-1.811.651a30.488,30.488,0,0,0-5.561,2.369.908.908,0,0,1-.468.13" transform="translate(34.53 92.715)" fill="#1a1311"/>
        <path id="パス_9951" data-name="パス 9951" d="M.907,15.228A.929.929,0,0,1,.4,15.075.925.925,0,0,1,.15,13.8c.392-.611,1.32-.982,2.785-1.415.665-.193,1.2-.336,1.74-.474.8-.208,1.595-.411,2.38-.682,1.456-.5,2.881-1.026,4.317-1.553L12.5,9.267c.887-.324,1.773-.579,2.659-.831A23.366,23.366,0,0,0,18.9,7.142a14.019,14.019,0,0,1,2.453-.822c.4-.111.808-.218,1.2-.344a14.478,14.478,0,0,0,1.528-.621c.523-.237,1.043-.47,1.593-.657l.4-.136a49.032,49.032,0,0,0,5.091-1.947c.764-.363,1.561-.649,2.359-.938.451-.159.9-.321,1.347-.5A8.509,8.509,0,0,0,35.8.721,8.684,8.684,0,0,1,37.307.039a.905.905,0,0,1,.531,1.731,6.875,6.875,0,0,0-1.183.546,10.753,10.753,0,0,1-1.108.538c-.466.186-.938.357-1.41.525-.739.268-1.482.533-2.193.869a49.851,49.851,0,0,1-5.28,2.025l-.409.141c-.493.168-.961.38-1.431.59A15.98,15.98,0,0,1,23.11,7.7c-.42.136-.852.252-1.285.367a12.881,12.881,0,0,0-2.147.711,25.286,25.286,0,0,1-4.023,1.4c-.843.242-1.689.481-2.535.792l-1.127.411c-1.448.533-2.883,1.058-4.35,1.565-.831.285-1.673.5-2.514.724-.52.134-1.037.266-1.553.42a6.374,6.374,0,0,0-1.945.743.851.851,0,0,1-.724.4" transform="translate(35.493 97.185)" fill="#1a1311"/>
        <path id="パス_9952" data-name="パス 9952" d="M1.193,15.481a1.286,1.286,0,0,1-.884-.313.9.9,0,0,1,.97-1.5,9.446,9.446,0,0,0,1.731-.682c.26-.122.48-.222.625-.279L4.947,12.2c1.429-.556,2.852-1.11,4.312-1.582C13.4,9.284,17.6,7.771,21.67,6.3l.694-.249c1.614-.581,3.23-1.19,4.839-1.8L30.1,3.164c1.2-.447,2.407-.894,3.578-1.394a18.546,18.546,0,0,1,1.866-.629A9.433,9.433,0,0,0,38.02.164a.9.9,0,0,1,1.257.228.9.9,0,0,1-.229,1.255,10.46,10.46,0,0,1-2.991,1.225,16.754,16.754,0,0,0-1.674.563c-1.2.508-2.428.969-3.656,1.423L27.844,5.945c-1.62.613-3.245,1.227-4.867,1.809l-.695.252C18.2,9.475,13.977,11,9.816,12.337,8.388,12.8,7,13.34,5.6,13.882l-1.322.512c-.116.046-.292.13-.5.229a7.073,7.073,0,0,1-2.583.858" transform="translate(36.665 101.643)" fill="#1a1311"/>
        <path id="パス_9953" data-name="パス 9953" d="M1.1,8.024a2.685,2.685,0,0,1-.312-.017A.906.906,0,0,1,.007,7a.916.916,0,0,1,1.012-.785,1.69,1.69,0,0,0,.923-.3c.195-.1.392-.2.6-.277.541-.216,1.11-.384,1.675-.552l.684-.2c2.25-.7,4.348-1.36,6.417-2.053.936-.315,1.872-.732,2.812-1.148A21.769,21.769,0,0,1,18.774.016a.9.9,0,0,1,1.06.718.911.911,0,0,1-.72,1.062,20.234,20.234,0,0,0-4.254,1.536c-.969.43-1.968.877-2.971,1.215C9.805,5.241,7.7,5.9,5.6,6.555l-.877.269c-.512.149-1.028.3-1.515.493-.155.063-.306.139-.455.214a3.6,3.6,0,0,1-1.65.493" transform="translate(38.408 115.421)" fill="#1a1311"/>
        <path id="パス_9954" data-name="パス 9954" d="M.943,9.377c-.03,0-.057,0-.082,0A.9.9,0,0,1,.905,7.568a.152.152,0,0,1,.042,0,3.04,3.04,0,0,0,.8-.325c.168-.084.328-.162.47-.222.953-.409,1.91-.808,2.867-1.211l.248-.1c2.541-1.049,4.869-1.95,7.118-2.756A72.415,72.415,0,0,0,19.511.091.9.9,0,0,1,20.3,1.717a74.6,74.6,0,0,1-7.244,2.94c-2.221.8-4.524,1.685-7.032,2.724l-.243.1q-1.429.6-2.854,1.2c-.115.048-.239.111-.367.176a3.758,3.758,0,0,1-1.62.516" transform="translate(39.386 119.493)" fill="#1a1311"/>
        <path id="パス_9955" data-name="パス 9955" d="M.905,9.178a.905.905,0,0,1-.117-1.8A10.42,10.42,0,0,0,3.623,6.311c.483-.235.955-.46,1.4-.642.529-.212,1.07-.382,1.611-.55a16.12,16.12,0,0,0,1.652-.575c.988-.432,2.115-.923,3.3-1.309,1.127-.363,2.224-.812,3.322-1.259.589-.237,1.179-.479,1.775-.708l.7-.258A11.941,11.941,0,0,0,19.448.127a.9.9,0,1,1,.927,1.553A13.747,13.747,0,0,1,18,2.715l-.669.243c-.579.222-1.157.46-1.738.694-1.137.462-2.275.924-3.446,1.3-1.1.357-2.182.831-3.137,1.246a18.819,18.819,0,0,1-1.839.646c-.493.151-.988.3-1.467.5-.412.166-.848.378-1.293.594A11.677,11.677,0,0,1,1.023,9.17a1.181,1.181,0,0,1-.118.008" transform="translate(40.738 124.734)" fill="#1a1311"/>
        <path id="パス_9956" data-name="パス 9956" d="M.906,8.988A.905.905,0,0,1,.587,7.236c.713-.268,1.469-.466,2.235-.669A20.5,20.5,0,0,0,5.1,5.876c.758-.3,1.524-.573,2.29-.852,1.333-.483,2.707-.982,4-1.566,1.173-.533,2.39-.948,3.57-1.351.579-.2,1.162-.4,1.74-.611l.661-.224A8.924,8.924,0,0,0,19.625.311.9.9,0,0,1,20.9.227.9.9,0,0,1,20.983,1.5a7.361,7.361,0,0,1-3.056,1.486l-.6.206c-.586.214-1.179.419-1.775.623-1.14.388-2.317.793-3.41,1.288-1.352.611-2.762,1.123-4.126,1.618-.751.273-1.5.545-2.252.837a22.315,22.315,0,0,1-2.478.755,21.1,21.1,0,0,0-2.059.615.934.934,0,0,1-.317.056" transform="translate(41.9 129.774)" fill="#1a1311"/>
        <path id="パス_9957" data-name="パス 9957" d="M1.1,9.033a1.309,1.309,0,0,1-.651-.172A.91.91,0,0,1,.123,7.622.925.925,0,0,1,1.143,7.2a3.69,3.69,0,0,0,.4-.174,4.487,4.487,0,0,1,.519-.216,25.063,25.063,0,0,0,2.7-1.07,9.352,9.352,0,0,1,2.262-.68,13.138,13.138,0,0,0,2.069-.64l.844-.3a52.419,52.419,0,0,0,5.354-2.209c.386-.185.77-.395,1.16-.6A14.287,14.287,0,0,1,19.27.035a.9.9,0,1,1,.5,1.735A12.949,12.949,0,0,0,17.31,2.895c-.413.227-.825.447-1.236.646A54.889,54.889,0,0,1,10.526,5.83l-.808.292a14.887,14.887,0,0,1-2.35.718,7.554,7.554,0,0,0-1.847.546,27.361,27.361,0,0,1-2.9,1.148,2.833,2.833,0,0,0-.308.134A2.941,2.941,0,0,1,1.1,9.033" transform="translate(43.648 135.209)" fill="#1a1311"/>
        <path id="パス_9958" data-name="パス 9958" d="M.968,7.924c-.042,0-.088,0-.131,0A.9.9,0,0,1,0,6.95a.957.957,0,0,1,.965-.835,2.334,2.334,0,0,0,.566-.248,5.258,5.258,0,0,1,.575-.275l.581-.216c.768-.283,1.526-.562,2.281-.915A53.946,53.946,0,0,1,10.1,2.321c1.238-.428,2.487-.852,3.706-1.251.149-.048.38-.109.657-.18A12.052,12.052,0,0,0,16.207.34.813.813,0,0,1,17.4.191a.987.987,0,0,1,.149,1.333c-.31.44-.93.667-2.629,1.114-.235.063-.436.115-.561.155-1.2.39-2.44.81-3.67,1.238A52.464,52.464,0,0,0,5.733,6.1c-.8.372-1.6.67-2.415.97l-.566.212a3.142,3.142,0,0,0-.372.181,3.026,3.026,0,0,1-1.412.46" transform="translate(60.914 107.366)" fill="#1a1311"/>
        <path id="パス_9959" data-name="パス 9959" d="M.9,8.6a.9.9,0,0,1-.538-1.63A9.385,9.385,0,0,1,3.146,5.723c.323-.1.646-.206.95-.321q3.11-1.18,6.212-2.424l4.384-1.746c.239-.092.537-.189.858-.288A5.378,5.378,0,0,0,17.105.3a.9.9,0,1,1,1.343,1.211,5.436,5.436,0,0,1-2.361,1.16c-.271.086-.527.164-.732.246l-4.377,1.74Q7.861,5.9,4.737,7.093c-.336.126-.684.239-1.041.351a8.06,8.06,0,0,0-2.254.973A.877.877,0,0,1,.9,8.6" transform="translate(61.884 111.733)" fill="#1a1311"/>
        <path id="パス_9960" data-name="パス 9960" d="M1.173,7.843A2.6,2.6,0,0,1,.75,7.809.905.905,0,1,1,1.06,6.025a5.507,5.507,0,0,0,2.31-.787c.239-.117.46-.226.648-.31A37.949,37.949,0,0,1,8.082,3.453c.762-.245,1.522-.485,2.273-.758.548-.2,1.1-.384,1.65-.571.913-.308,1.823-.613,2.707-.974.294-.12.651-.233,1.022-.351A5.816,5.816,0,0,0,17.2.214.9.9,0,0,1,18.47.324.9.9,0,0,1,18.363,1.6a6.239,6.239,0,0,1-2.088.932c-.317.1-.628.193-.88.3-.921.374-1.866.693-2.814,1.012-.538.182-1.079.365-1.614.558-.77.279-1.551.529-2.331.781a35.922,35.922,0,0,0-3.88,1.4c-.174.077-.372.174-.588.279a7.4,7.4,0,0,1-2.995.984" transform="translate(63.239 117.165)" fill="#1a1311"/>
        <path id="パス_9961" data-name="パス 9961" d="M1.088,8.418a1.7,1.7,0,0,1-.369-.04.9.9,0,0,1-.7-1.07.913.913,0,0,1,1.063-.7H1.1a2.7,2.7,0,0,0,.749-.328c.166-.092.326-.178.472-.243a9.959,9.959,0,0,1,1.255-.443c.267-.08.537-.157.8-.262.986-.367,1.945-.781,2.9-1.192,1.083-.466,2.17-.934,3.279-1.335,1.162-.418,2.278-.9,3.4-1.385l.892-.386A9.631,9.631,0,0,1,16.094.645,5.008,5.008,0,0,0,17.427.179a.905.905,0,0,1,1.087,1.448,5.789,5.789,0,0,1-1.961.766,7.747,7.747,0,0,0-1,.3l-.883.382c-1.154.5-2.306,1-3.5,1.427-1.074.388-2.126.839-3.177,1.295-.984.422-1.968.844-2.971,1.221-.307.116-.618.21-.93.3a7.4,7.4,0,0,0-1.026.357c-.109.048-.225.113-.348.181a3.49,3.49,0,0,1-1.628.554" transform="translate(64.794 121.824)" fill="#1a1311"/>
        <path id="パス_9962" data-name="パス 9962" d="M.9,8.6a.9.9,0,0,1-.538-1.63,12.244,12.244,0,0,1,3.539-1.6c.4-.132.8-.262,1.167-.4,1.286-.476,2.566-.938,3.849-1.4l2.023-.732a18.111,18.111,0,0,0,1.809-.8,17.575,17.575,0,0,1,2.21-.951c.279-.092.588-.179.9-.267A7.045,7.045,0,0,0,17.674.148a.9.9,0,1,1,.986,1.515,8.3,8.3,0,0,1-2.319.888c-.285.078-.56.155-.812.235a16.846,16.846,0,0,0-1.987.865,20.388,20.388,0,0,1-1.981.875L9.534,5.26Q7.62,5.949,5.708,6.653c-.392.147-.812.285-1.236.426a11,11,0,0,0-3.03,1.339A.878.878,0,0,1,.9,8.6" transform="translate(65.955 127.06)" fill="#1a1311"/>
      </g>
    </g>
  </g>
</svg>
