<svg xmlns="http://www.w3.org/2000/svg" width="528.893" height="388.203" viewBox="0 0 528.893 388.203">
  <g id="グループ_9548" data-name="グループ 9548" transform="translate(74.78 -261.497)">
    <path id="パス_100" data-name="パス 100" d="M5542.549,7857.01s47.049-25.175,128.765-24.763" transform="translate(1058.652 -9060.398) rotate(40)" fill="none" stroke="#f9584d" stroke-linecap="round" stroke-width="4"/>
    <path id="パス_105" data-name="パス 105" d="M5542.549,7857.01s47.049-25.175,128.765-24.763" transform="matrix(0.899, -0.438, 0.438, 0.899, -8478.334, -4061.786)" fill="none" stroke="#fad60b" stroke-linecap="round" stroke-width="8"/>
    <path id="パス_106" data-name="パス 106" d="M5542.549,7857.01s47.049-25.175,128.765-24.763" transform="matrix(0.809, 0.588, -0.588, 0.809, 443.515, -9289.365)" fill="none" stroke="#fad60b" stroke-linecap="round" stroke-width="22"/>
    <path id="パス_107" data-name="パス 107" d="M5542.549,7847.981s29.9-16,81.825-15.736" transform="translate(-6551.105 -6580.129) rotate(-8)" fill="none" stroke="#2ec4ce" stroke-linecap="round" stroke-width="6"/>
    <path id="パス_108" data-name="パス 108" d="M5542.55,7868.652s69.163-37.008,189.285-36.4" transform="translate(-5560.136 -7569.246)" fill="none" stroke="#2ec4ce" stroke-linecap="round" stroke-width="3"/>
    <path id="パス_101" data-name="パス 101" d="M5542.549,7857.01s47.049-25.175,128.765-24.763" transform="translate(-7227.883 -6018.783) rotate(-13)" fill="none" stroke="#f9584d" stroke-linecap="round" stroke-width="12" opacity="0.77"/>
    <path id="パス_102" data-name="パス 102" d="M5542.549,7857.01s47.049-25.175,128.765-24.763" transform="matrix(0.956, 0.292, -0.292, 0.956, -2842.389, -8711.932)" fill="none" stroke="#f9584d" stroke-linecap="round" stroke-width="10" opacity="0.9"/>
    <path id="パス_103" data-name="パス 103" d="M5542.549,7857.01s47.049-25.175,128.765-24.763" transform="translate(-8918.541 -3083.78) rotate(-32)" fill="none" stroke="#fff" stroke-linecap="round" stroke-width="8"/>
    <path id="パス_104" data-name="パス 104" d="M5542.549,7857.01s47.049-25.175,128.765-24.763" transform="matrix(0.629, 0.777, -0.777, 0.629, 2956.329, -8752.102)" fill="none" stroke="#fff" stroke-linecap="round" stroke-width="22"/>
  </g>
</svg>
