<svg id="グループ_3" data-name="グループ 3" xmlns="http://www.w3.org/2000/svg" xmlns:xlink="http://www.w3.org/1999/xlink" width="15.439" height="15.439" viewBox="0 0 15.439 15.439">
  <defs>
    <clipPath id="clip-path">
      <rect id="長方形_25" data-name="長方形 25" width="15.439" height="15.439" fill="#afafaf"/>
    </clipPath>
  </defs>
  <g id="グループ_2" data-name="グループ 2" clip-path="url(#clip-path)">
    <path id="パス_1" data-name="パス 1" d="M7.72,15.439A7.721,7.721,0,0,1,4.715.607a7.721,7.721,0,0,1,6.01,14.225,7.672,7.672,0,0,1-3.005.607m0-13.885A6.165,6.165,0,0,0,3.36,12.079,6.165,6.165,0,1,0,12.079,3.36,6.125,6.125,0,0,0,7.72,1.555" fill="#afafaf"/>
    <path id="パス_2" data-name="パス 2" d="M450.521,202.055h-2.41v-3.084a.777.777,0,0,0-1.555,0v3.716c0,.025,0,.049,0,.073s0,.048,0,.073a.777.777,0,0,0,.777.777h3.187a.777.777,0,0,0,0-1.555" transform="translate(-439.615 -195.113)" fill="#afafaf"/>
  </g>
</svg>
