<svg xmlns="http://www.w3.org/2000/svg" width="203" height="72" viewBox="0 0 203 72">
  <g id="グループ_9526" data-name="グループ 9526" transform="translate(-582 -2152)">
    <rect id="長方形_806" data-name="長方形 806" width="203" height="72" transform="translate(582 2152)" fill="none"/>
    <g id="グループ_8772" data-name="グループ 8772" transform="translate(574.907 2146.04)">
      <path id="パス_120" data-name="パス 120" d="M225.548,257.2,237.8,243.543l2.179-2.414,6.713-7.538.294-.353-.825-.883L242.1,227.76l-.766-.883-.294.294-6.713,7.6-2.179,2.414-12.249,13.662Z" transform="translate(-189.608 -199.917)" fill="#003e6f"/>
      <path id="パス_121" data-name="パス 121" d="M184.873,241.776l7.656-8.539-5.653-6.36-7.6,8.539-.412.412-.942,1.119-4.829,5.359,5.653,6.3Z" transform="translate(-150.464 -199.917)" fill="#0088db"/>
      <path id="パス_122" data-name="パス 122" d="M132.668,240.127l6.124-6.89-5.653-6.36-6.124,6.89Z" transform="translate(-111.922 -199.917)" fill="#0088db"/>
      <g id="グループ_109" data-name="グループ 109" transform="translate(68.387 33.32)">
        <g id="グループ_9411" data-name="グループ 9411">
          <path id="パス_123" data-name="パス 123" d="M516.886,281.421v-3h3.651l-3.651-11.13v-1.531h2.65l6.537,19.492h-3.357l-1.237-3.828Zm28.973,3.828H530.666V265.875h3.121v16.253h12.072Zm20.67-7.361a8.483,8.483,0,0,1-1.472,5.418c-1.178,1.413-3.121,2.061-5.83,2.061h-1.473c-2.65,0-4.593-.648-5.771-2.061a8.258,8.258,0,0,1-1.531-5.418V265.875h3.18v11.954a4.9,4.9,0,0,0,1,3.3,4.259,4.259,0,0,0,3.3,1.06h1.178a4.377,4.377,0,0,0,3.356-1.178,4.876,4.876,0,0,0,.883-3.18V265.875h3.18Zm20.964,7.361h-15.37V265.875h15.37v3.18H575.3v4.829h11.365v2.827H575.3v5.418h12.19Zm-119.308,0h-15.37V265.875h15.37v3.18h-12.19v4.829H467.3v2.827H455.995v5.418h12.19Zm48.7-19.492v1.531l-.059-.059-3.651,11.189h3.71v3h-4.652l-1.3,3.828h-3.3l6.537-19.492Zm-34.627,11.954h-9.6v-3h9.6Zm21.848-11.837-6.772,19.374h-4.181l-6.772-19.374H489.8l5.476,16.253,5.477-16.253Z" transform="translate(-452.815 -265.757)" fill="#1a1311"/>
        </g>
      </g>
    </g>
  </g>
</svg>
