<svg xmlns="http://www.w3.org/2000/svg" width="75.744" height="50.071" viewBox="0 0 75.744 50.071">
  <g id="相談アイコン1" transform="translate(0 -86.769)">
    <path id="パス_10043" data-name="パス 10043" d="M7,263.174a8.861,8.861,0,0,1-2.609-6.282v-9.142H0v9.142a13.293,13.293,0,0,0,13.28,13.281h6v-4.389h-6A8.85,8.85,0,0,1,7,263.174Z" transform="translate(0 -137.167)" fill="#fad60b"/>
    <path id="パス_10044" data-name="パス 10044" d="M52.569,98.353a5.792,5.792,0,1,0-5.792-5.792A5.788,5.788,0,0,0,52.569,98.353Z" transform="translate(-39.857 0)" fill="#fad60b"/>
    <path id="パス_10045" data-name="パス 10045" d="M67.092,196.158H58.966v-12.1a5.666,5.666,0,1,0-11.333,0v13.78A5.666,5.666,0,0,0,53.3,203.51c.425,0,10.359-.029,10.359-.029l.544,8.386a3.111,3.111,0,1,0,6.221-.137l.33-11.911A3.66,3.66,0,0,0,67.092,196.158Z" transform="translate(-40.586 -78.07)" fill="#fad60b"/>
    <path id="パス_10046" data-name="パス 10046" d="M396.592,247.751v9.142a8.908,8.908,0,0,1-8.89,8.892h-6v4.389h6a13.293,13.293,0,0,0,13.278-13.281v-9.142Z" transform="translate(-325.236 -137.167)" fill="#fad60b"/>
    <path id="パス_10047" data-name="パス 10047" d="M392.715,98.353a5.792,5.792,0,1,0-5.791-5.792A5.791,5.791,0,0,0,392.715,98.353Z" transform="translate(-329.684 0)" fill="#fad60b"/>
    <path id="パス_10048" data-name="パス 10048" d="M331.207,197.841v-13.78a5.667,5.667,0,1,0-11.334,0v12.1h-8.126a3.66,3.66,0,0,0-3.661,3.661l.33,11.911a3.111,3.111,0,1,0,6.221.137l.544-8.386s9.934.029,10.359.029A5.667,5.667,0,0,0,331.207,197.841Z" transform="translate(-262.509 -78.069)" fill="#fad60b"/>
    <rect id="長方形_251" data-name="長方形 251" width="31.42" height="5.347" transform="translate(22.731 110.639)" fill="#fad60b"/>
    <rect id="長方形_252" data-name="長方形 252" width="3.656" height="12.944" transform="translate(36.104 118.857)" fill="#fad60b"/>
  </g>
</svg>
