<svg xmlns="http://www.w3.org/2000/svg" width="55.628" height="52.869" viewBox="0 0 55.628 52.869">
  <g id="デスクワークアイコン4" transform="translate(0 -12.697)">
    <rect id="長方形_249" data-name="長方形 249" width="55.628" height="5.791" transform="translate(0 59.775)" fill="#fad60b"/>
    <path id="パス_10032" data-name="パス 10032" d="M14.884,291.31H38.379v-4.573H27.387l-4.628-12.573H1.168L7.9,291.31Z" transform="translate(-1.041 -233.059)" fill="#fad60b"/>
    <path id="パス_10033" data-name="パス 10033" d="M57.471,58.076,63,62.346a.842.842,0,0,0,.077.044l.035.019a1.268,1.268,0,0,0,1.535-.339c.012-.014.025-.022.036-.037l6.782-8.023A.921.921,0,1,0,70.107,52.8l-6.339,6.773-4.9-3.408a1.2,1.2,0,0,0-1.4,1.913Z" transform="translate(-50.883 -35.401)" fill="#fad60b"/>
    <path id="パス_10034" data-name="パス 10034" d="M107.2,201.93a1.349,1.349,0,1,0,1.349-1.35A1.348,1.348,0,0,0,107.2,201.93Z" transform="translate(-95.556 -167.47)" fill="#fad60b"/>
    <path id="パス_10035" data-name="パス 10035" d="M108.551,15.4a1.349,1.349,0,1,0-1.349-1.35A1.349,1.349,0,0,0,108.551,15.4Z" transform="translate(-95.555)" fill="#fad60b"/>
    <path id="パス_10036" data-name="パス 10036" d="M174.013,173.462a1.35,1.35,0,1,0,1.909,0A1.35,1.35,0,0,0,174.013,173.462Z" transform="translate(-154.755 -142.946)" fill="#fad60b"/>
    <path id="パス_10037" data-name="パス 10037" d="M43.072,42.518a1.35,1.35,0,1,0-1.909,0A1.349,1.349,0,0,0,43.072,42.518Z" transform="translate(-36.339 -24.527)" fill="#fad60b"/>
    <path id="パス_10038" data-name="パス 10038" d="M202.489,109.349A1.349,1.349,0,1,0,201.14,108,1.349,1.349,0,0,0,202.489,109.349Z" transform="translate(-179.287 -83.746)" fill="#fad60b"/>
    <path id="パス_10039" data-name="パス 10039" d="M14.607,109.349a1.349,1.349,0,1,0-1.35-1.35A1.35,1.35,0,0,0,14.607,109.349Z" transform="translate(-11.817 -83.746)" fill="#fad60b"/>
    <path id="パス_10040" data-name="パス 10040" d="M41.168,173.465a1.35,1.35,0,1,0,1.909,0A1.349,1.349,0,0,0,41.168,173.465Z" transform="translate(-36.343 -142.948)" fill="#fad60b"/>
    <path id="パス_10041" data-name="パス 10041" d="M300.871,87.091a8.146,8.146,0,0,0,1.647,3.939v2.051a.588.588,0,0,1-.026.162l3.842,1.649,3.839-1.649a.619.619,0,0,1-.027-.162V91.03a8.119,8.119,0,0,0,1.648-3.939c.786-.25,1.237-.651,1.8-2.4.6-1.863-.9-1.8-.9-1.8,1.207-3.563-.383-6.914-3.046-6.669-1.837-2.865-7.99.656-9.92.409a3.559,3.559,0,0,0,.459,1.72c-.671,1.134-.412,3.395-.223,4.54-.109,0-1.46.012-.886,1.8C299.637,86.44,300.085,86.841,300.871,87.091Z" transform="translate(-266.457 -55.615)" fill="#fad60b"/>
    <rect id="長方形_250" data-name="長方形 250" width="2.896" height="2.236" transform="translate(38.428 40.114)" fill="#fad60b"/>
    <path id="パス_10042" data-name="パス 10042" d="M260.3,287.32v6.537h16.2c-.861-8.034-4.736-15.553-7.4-16.442a7.885,7.885,0,0,1-.935-.393l-5.451,6.709-.386-4.4h-2.9l-.387,4.4-5.442-6.709a6.487,6.487,0,0,1-.945.393c-1.418.443-3.269,3.859-4.716,7.778l.778,2.127Z" transform="translate(-220.997 -235.607)" fill="#fad60b"/>
  </g>
</svg>
