<?xml version="1.0" encoding="UTF-8"?>
<svg id="_レイヤー_1" data-name="レイヤー 1" xmlns="http://www.w3.org/2000/svg" viewBox="0 0 198.426 48.767">
  <defs>
    <style>
      .cls-1 {
        fill: #231815;
      }

      .cls-1, .cls-2 {
        stroke-width: 0px;
      }

      .cls-2 {
        fill: #f7514d;
      }
    </style>
  </defs>
  <path class="cls-1" d="M45.213,4.36h26.098l-.842,3.979h-10.903l-5.878,29.515h-4.246l5.879-29.515h-10.921l.814-3.979ZM127.537,33.276c-1.689.781-3.018,1.264-4.426,1.264-1.982,0-2.865-.854-2.865-2.77,0-.458.056-.935.167-1.427l3.767-15.722h-13.361l-.849,3.845h9.301l-2.836,11.048c-.22,1.018-.323,1.84-.323,2.588,0,3.958,2.446,6.321,6.542,6.321,2.435,0,4.184-.624,6.383-1.7l.88-.431-1.341-3.497-1.04.481ZM123.555,10.774c1.885,0,3.539-1.713,3.539-3.666,0-1.755-1.247-2.98-3.032-2.98-1.878,0-3.526,1.713-3.526,3.666,0,1.755,1.242,2.98,3.02,2.98ZM157.55,12.293c-4.064,0-7.279,1.994-9.761,4.089l.548-3.518h-3.789l-4.997,24.989h4.149s2.269-10.596,2.901-13.762c.911-4.569,7.338-7.888,10.409-7.888,2.265,0,3.32.998,3.32,3.143,0,1.202-.2,2.301-.442,3.509l-3.018,14.998h4.153l2.956-14.743c.3-1.449.485-2.651.485-4.162,0-4.229-2.52-6.655-6.915-6.655ZM99.144,32.795l1.34,3.497-.88.431c-2.199,1.077-3.949,1.7-6.383,1.7-4.097,0-6.542-2.363-6.542-6.321,0-.746.103-1.569.323-2.588l1.347-6.075-1.267.076-5.31.002-2.86,14.336h-4.247l6.709-33.493h8.711c4.713,0,10.332,1.389,10.332,8.009,0,4.847-2.91,8.682-7.807,10.324l-1.63,7.652c-.111.49-.167.967-.167,1.425,0,1.916.884,2.77,2.865,2.77,1.408,0,2.737-.484,4.426-1.264l1.039-.481ZM89.229,8.217h-4.421l-2.226,11.442h4.143c5.942,0,9.489-2.666,9.489-7.131,0-2.239-.846-4.311-6.985-4.311ZM198.426,12.864l-5.262,26.241c-1.216,6.14-5.757,9.663-12.46,9.663-4.32,0-7.25-1.603-8.948-2.948l-.808-.641,2.381-3.249.878.75c1.623,1.389,4.108,2.217,6.649,2.217,4.502,0,7.55-2.403,8.362-6.591l.582-2.934c-2.394,1.691-5.024,2.639-7.411,2.639-5.642,0-9.147-3.702-9.147-9.662,0-8.852,6.178-16.055,13.771-16.055,2.808,0,5.318.964,7.064,2.681l.6-2.11h3.75ZM185.868,16.177c-4.555.889-8.152,6.168-8.492,10.984-.198,2.8.086,6.743,4.533,6.743,2.479,0,7.984-2.031,8.893-5.302.909-3.271.711-2.466,1.478-5.926,1.017-4.59-2.624-7.237-6.412-6.498Z"/>
  <g>
    <polygon class="cls-2" points="20.075 1.719 14.569 5.389 17.137 7.464 12.36 10.476 16.975 14.137 27.199 7.414 20.075 1.719"/>
    <polygon class="cls-2" points="0 9.898 1.182 15.84 6.275 12.297 8.227 20.022 13.738 16.341 10.538 2.723 0 9.898"/>
    <polygon class="cls-2" points="3.607 30.929 9.85 30.934 8.978 25.931 16.052 25.931 14.839 20.022 1.55 20.022 3.607 30.929"/>
    <polygon class="cls-2" points="20.498 37.824 23.154 31.883 19.721 31.894 24.854 19.982 18.628 20.021 10.856 37.849 20.498 37.824"/>
    <polygon class="cls-2" points="37.63 3.676 33.039 0 26.582 13.333 22.796 10.307 20.16 16.23 28.519 22.911 37.63 3.676"/>
  </g>
</svg>
